<svg xmlns="http://www.w3.org/2000/svg" xmlns:xlink="http://www.w3.org/1999/xlink" width="1080" zoomAndPan="magnify" viewBox="0 0 810 809.999993" height="1080" preserveAspectRatio="xMidYMid meet" version="1.0"><defs><clipPath id="78f762873f"><path d="M 483 64.5 L 745.5 64.5 L 745.5 327 L 483 327 Z M 483 64.5 " clip-rule="nonzero"/></clipPath><clipPath id="fda4a4553c"><path d="M 196.425781 188 L 397 188 L 397 387.882812 L 196.425781 387.882812 Z M 196.425781 188 " clip-rule="nonzero"/></clipPath></defs><rect x="-81" width="972" fill="#ffffff" y="-80.999999" height="971.999992" fill-opacity="1"/><rect x="-81" width="972" fill="#032721" y="-80.999999" height="971.999992" fill-opacity="1"/><path fill="#0cc0df" d="M 140.023438 743.015625 C 111.734375 727.34375 84.007812 699.390625 67.1875 670.003906 C 64.570312 665.4375 65.335938 659.691406 69.058594 655.96875 L 459.414062 265.609375 C 462.164062 262.859375 466.625 262.859375 469.371094 265.609375 L 544.378906 340.617188 C 547.128906 343.367188 547.128906 347.824219 544.378906 350.574219 L 153.902344 741.050781 C 150.230469 744.722656 144.570312 745.53125 140.023438 743.015625 " fill-opacity="1" fill-rule="nonzero"/><g clip-path="url(#78f762873f)"><path fill="#0cc0df" d="M 539.996094 298.933594 L 709.824219 129.105469 L 710.390625 129.675781 C 711.339844 130.628906 712.859375 130.675781 713.863281 129.785156 L 744.339844 102.835938 C 745.410156 101.886719 745.464844 100.230469 744.453125 99.21875 L 710.769531 65.535156 C 709.753906 64.523438 708.101562 64.574219 707.152344 65.644531 L 680.203125 96.125 C 679.316406 97.125 679.359375 98.648438 680.308594 99.597656 L 680.878906 100.167969 L 511.058594 269.992188 L 483.070312 263.472656 L 546.511719 326.917969 L 539.996094 298.933594 " fill-opacity="1" fill-rule="nonzero"/></g><g clip-path="url(#fda4a4553c)"><path fill="#0cc0df" d="M 334.269531 219.15625 C 334.46875 216.75 334.671875 214.28125 334.871094 211.875 C 334.9375 210.671875 336.007812 209.804688 337.140625 209.871094 C 338.34375 209.9375 339.210938 211.007812 339.144531 212.144531 C 338.945312 214.613281 338.746094 217.085938 338.542969 219.488281 C 338.410156 220.625 337.476562 221.425781 336.40625 221.425781 C 336.339844 221.425781 336.273438 221.425781 336.207031 221.425781 C 335.003906 221.359375 334.136719 220.355469 334.269531 219.15625 Z M 339.34375 241.863281 C 339.613281 241.996094 339.878906 242.0625 340.148438 242.0625 C 340.746094 242.0625 341.347656 241.726562 341.617188 241.195312 C 342.683594 239.191406 343.753906 237.121094 344.820312 235.050781 C 345.222656 234.25 344.886719 233.179688 344.085938 232.777344 C 343.285156 232.378906 342.21875 232.710938 341.816406 233.511719 C 340.816406 235.515625 339.746094 237.585938 338.675781 239.589844 C 338.210938 240.390625 338.542969 241.394531 339.34375 241.863281 Z M 327.726562 212.410156 C 327.792969 212.410156 327.859375 212.410156 327.925781 212.410156 C 328.992188 212.410156 329.929688 211.542969 330.0625 210.472656 C 330.261719 208.003906 330.464844 205.53125 330.664062 203.125 C 330.730469 201.925781 329.863281 200.921875 328.660156 200.855469 C 327.457031 200.789062 326.457031 201.65625 326.390625 202.859375 C 326.1875 205.265625 325.988281 207.734375 325.789062 210.140625 C 325.65625 211.207031 326.523438 212.277344 327.726562 212.410156 Z M 345.625 229.640625 C 345.890625 229.773438 346.089844 229.839844 346.359375 229.839844 C 346.957031 229.839844 347.558594 229.507812 347.894531 228.90625 C 348.894531 226.835938 349.832031 224.765625 350.832031 222.628906 C 351.234375 221.757812 350.832031 220.757812 349.964844 220.355469 C 349.097656 219.957031 348.09375 220.355469 347.691406 221.226562 C 346.757812 223.296875 345.824219 225.367188 344.820312 227.4375 C 344.421875 228.238281 344.820312 229.238281 345.625 229.640625 Z M 329.730469 221.292969 C 329.460938 223.695312 329.195312 226.167969 328.925781 228.570312 C 328.792969 229.773438 329.660156 230.84375 330.796875 230.976562 C 330.863281 230.976562 330.996094 230.976562 331.0625 230.976562 C 332.132812 230.976562 333.066406 230.175781 333.203125 229.105469 C 333.46875 226.703125 333.734375 224.164062 334.003906 221.757812 C 334.136719 220.558594 333.269531 219.554688 332.066406 219.421875 C 330.863281 219.222656 329.863281 220.089844 329.730469 221.292969 Z M 335.203125 275.71875 C 335.472656 275.921875 335.804688 275.988281 336.140625 275.988281 C 336.675781 275.988281 337.207031 275.71875 337.542969 275.253906 C 338.8125 273.316406 340.078125 271.378906 341.28125 269.441406 C 341.75 268.640625 341.550781 267.640625 340.746094 267.105469 C 339.945312 266.636719 338.878906 266.839844 338.410156 267.640625 C 337.207031 269.578125 335.9375 271.445312 334.671875 273.382812 C 334.203125 274.117188 334.402344 275.1875 335.203125 275.71875 Z M 342.617188 264.167969 C 342.886719 264.300781 343.21875 264.433594 343.484375 264.433594 C 344.085938 264.433594 344.621094 264.167969 344.957031 263.632812 C 346.15625 261.695312 347.292969 259.691406 348.429688 257.6875 C 348.894531 256.886719 348.628906 255.820312 347.761719 255.351562 C 346.957031 254.882812 345.890625 255.152344 345.421875 256.019531 C 344.289062 258.023438 343.152344 259.960938 342.015625 261.898438 C 341.550781 262.632812 341.816406 263.699219 342.617188 264.167969 Z M 334.804688 253.148438 C 336.007812 251.210938 337.140625 249.207031 338.277344 247.203125 C 338.746094 246.402344 338.476562 245.335938 337.675781 244.867188 C 336.875 244.398438 335.804688 244.667969 335.339844 245.535156 C 334.203125 247.539062 333.066406 249.476562 331.933594 251.410156 C 331.464844 252.210938 331.730469 253.28125 332.535156 253.75 C 332.800781 253.882812 333.132812 254.015625 333.402344 254.015625 C 333.9375 253.949219 334.535156 253.683594 334.804688 253.148438 Z M 327.257812 286.875 C 327.589844 287.074219 327.925781 287.207031 328.257812 287.207031 C 328.792969 287.207031 329.261719 286.941406 329.59375 286.539062 C 330.929688 284.667969 332.332031 282.800781 333.601562 280.929688 C 334.136719 280.128906 333.9375 279.125 333.203125 278.59375 C 332.464844 278.058594 331.398438 278.257812 330.863281 278.992188 C 329.59375 280.863281 328.191406 282.734375 326.855469 284.535156 C 326.324219 285.269531 326.523438 286.339844 327.257812 286.875 Z M 322.316406 221.828125 C 322.382812 221.828125 322.515625 221.828125 322.582031 221.828125 C 323.652344 221.828125 324.585938 221.023438 324.71875 219.957031 C 324.988281 217.484375 325.253906 215.015625 325.519531 212.609375 C 325.65625 211.40625 324.785156 210.40625 323.585938 210.273438 C 322.382812 210.140625 321.378906 211.007812 321.246094 212.210938 C 320.980469 214.613281 320.710938 217.085938 320.445312 219.488281 C 320.3125 220.625 321.113281 221.691406 322.316406 221.828125 Z M 338.007812 299.363281 C 338.144531 299.429688 338.34375 299.429688 338.476562 299.429688 C 339.480469 299.429688 340.347656 298.761719 340.546875 297.757812 C 341.082031 295.355469 341.617188 292.949219 342.082031 290.546875 C 342.351562 289.410156 341.550781 288.277344 340.414062 288.007812 C 339.277344 287.742188 338.144531 288.542969 337.875 289.679688 C 337.410156 292.082031 336.875 294.488281 336.339844 296.824219 C 336.140625 297.960938 336.875 299.09375 338.007812 299.363281 Z M 291.996094 264.96875 C 292.195312 265.035156 292.328125 265.035156 292.53125 265.035156 C 293.464844 265.035156 294.332031 264.367188 294.601562 263.433594 C 295.203125 261.09375 295.800781 258.625 296.335938 256.21875 C 296.605469 255.085938 295.871094 253.882812 294.734375 253.617188 C 293.597656 253.347656 292.398438 254.082031 292.128906 255.21875 C 291.59375 257.621094 290.992188 259.960938 290.394531 262.296875 C 290.125 263.5 290.859375 264.703125 291.996094 264.96875 Z M 280.910156 286.875 C 280.175781 289.210938 279.375 291.480469 278.574219 293.820312 C 278.171875 294.953125 278.773438 296.15625 279.90625 296.558594 C 280.109375 296.625 280.375 296.691406 280.574219 296.691406 C 281.445312 296.691406 282.3125 296.15625 282.578125 295.222656 C 283.378906 292.882812 284.183594 290.546875 284.917969 288.210938 C 285.25 287.074219 284.648438 285.871094 283.515625 285.539062 C 282.511719 285.070312 281.308594 285.738281 280.910156 286.875 Z M 294.265625 272.113281 C 293.664062 274.453125 292.996094 276.855469 292.328125 279.195312 C 291.996094 280.328125 292.664062 281.53125 293.800781 281.863281 C 294 281.929688 294.199219 281.929688 294.398438 281.929688 C 295.335938 281.929688 296.203125 281.332031 296.46875 280.394531 C 297.136719 278.058594 297.804688 275.652344 298.40625 273.25 C 298.675781 272.113281 298.007812 270.914062 296.871094 270.644531 C 295.734375 270.3125 294.535156 270.980469 294.265625 272.113281 Z M 316.707031 231.042969 C 316.839844 231.042969 316.90625 231.042969 317.039062 231.042969 C 318.109375 231.042969 318.976562 230.242188 319.175781 229.171875 C 319.511719 226.769531 319.84375 224.296875 320.179688 221.828125 C 320.3125 220.625 319.511719 219.554688 318.308594 219.421875 C 317.105469 219.289062 316.039062 220.089844 315.90625 221.292969 C 315.570312 223.695312 315.304688 226.167969 314.902344 228.570312 C 314.703125 229.773438 315.503906 230.84375 316.707031 231.042969 Z M 287.65625 279.660156 C 286.988281 282 286.253906 284.335938 285.519531 286.671875 C 285.183594 287.808594 285.785156 289.011719 286.921875 289.34375 C 287.121094 289.410156 287.320312 289.410156 287.589844 289.410156 C 288.523438 289.410156 289.324219 288.808594 289.660156 287.875 C 290.394531 285.539062 291.128906 283.132812 291.796875 280.796875 C 292.128906 279.660156 291.460938 278.457031 290.328125 278.125 C 289.191406 277.859375 287.988281 278.527344 287.65625 279.660156 Z M 285.316406 272.714844 C 285.519531 272.78125 285.71875 272.78125 285.917969 272.78125 C 286.851562 272.78125 287.722656 272.179688 287.988281 271.246094 C 288.65625 268.910156 289.324219 266.503906 289.925781 264.101562 C 290.257812 262.964844 289.523438 261.761719 288.390625 261.496094 C 287.253906 261.160156 286.050781 261.898438 285.785156 263.03125 C 285.183594 265.371094 284.515625 267.773438 283.847656 270.109375 C 283.515625 271.246094 284.183594 272.382812 285.316406 272.714844 Z M 327.457031 264.835938 C 328.726562 262.898438 329.996094 260.960938 331.199219 259.023438 C 331.730469 258.222656 331.464844 257.15625 330.664062 256.6875 C 329.863281 256.152344 328.792969 256.421875 328.324219 257.222656 C 327.125 259.160156 325.855469 261.027344 324.585938 262.964844 C 324.050781 263.765625 324.253906 264.769531 325.054688 265.300781 C 325.320312 265.503906 325.65625 265.570312 325.988281 265.570312 C 326.589844 265.570312 327.125 265.300781 327.457031 264.835938 Z M 298.472656 256.886719 C 298.605469 256.953125 298.808594 256.953125 298.941406 256.953125 C 299.941406 256.953125 300.8125 256.285156 301.011719 255.285156 C 301.546875 252.878906 302.082031 250.476562 302.546875 248.074219 C 302.816406 246.9375 302.011719 245.800781 300.878906 245.535156 C 299.742188 245.265625 298.605469 246.070312 298.339844 247.203125 C 297.871094 249.609375 297.339844 252.011719 296.804688 254.351562 C 296.605469 255.484375 297.273438 256.621094 298.472656 256.886719 Z M 306.886719 256.285156 C 306.421875 258.691406 305.886719 261.09375 305.351562 263.433594 C 305.085938 264.566406 305.820312 265.769531 306.957031 265.96875 C 307.089844 266.035156 307.289062 266.035156 307.421875 266.035156 C 308.425781 266.035156 309.292969 265.371094 309.492188 264.367188 C 310.027344 261.964844 310.5625 259.558594 311.027344 257.15625 C 311.296875 256.019531 310.496094 254.882812 309.359375 254.617188 C 308.292969 254.417969 307.15625 255.152344 306.886719 256.285156 Z M 310.828125 239.925781 C 310.960938 239.925781 311.097656 239.925781 311.164062 239.925781 C 312.164062 239.925781 313.097656 239.191406 313.300781 238.121094 C 313.699219 235.71875 314.101562 233.246094 314.5 230.84375 C 314.703125 229.640625 313.902344 228.570312 312.699219 228.371094 C 311.496094 228.171875 310.429688 228.972656 310.226562 230.175781 C 309.894531 232.578125 309.492188 234.984375 309.09375 237.386719 C 308.890625 238.65625 309.625 239.722656 310.828125 239.925781 Z M 300.675781 264.367188 C 300.144531 266.773438 299.542969 269.109375 298.941406 271.445312 C 298.675781 272.582031 299.34375 273.785156 300.476562 274.050781 C 300.675781 274.117188 300.8125 274.117188 301.011719 274.117188 C 301.945312 274.117188 302.816406 273.449219 303.082031 272.515625 C 303.683594 270.175781 304.285156 267.707031 304.816406 265.300781 C 305.085938 264.167969 304.351562 262.964844 303.214844 262.699219 C 302.082031 262.496094 300.945312 263.230469 300.675781 264.367188 Z M 304.75 248.539062 C 304.886719 248.539062 305.019531 248.605469 305.152344 248.605469 C 306.152344 248.605469 307.023438 247.871094 307.222656 246.871094 C 307.691406 244.464844 308.15625 241.996094 308.625 239.589844 C 308.824219 238.457031 308.023438 237.320312 306.886719 237.121094 C 305.753906 236.917969 304.617188 237.722656 304.417969 238.855469 C 304.015625 241.261719 303.550781 243.664062 303.082031 246.070312 C 302.816406 247.203125 303.550781 248.339844 304.75 248.539062 Z M 312.03125 320.199219 C 311.296875 322.535156 310.496094 324.875 309.695312 327.144531 C 309.292969 328.28125 309.894531 329.480469 311.027344 329.882812 C 311.230469 329.949219 311.496094 330.015625 311.695312 330.015625 C 312.566406 330.015625 313.433594 329.480469 313.699219 328.546875 C 314.5 326.210938 315.304688 323.871094 316.039062 321.535156 C 316.371094 320.398438 315.769531 319.195312 314.636719 318.863281 C 313.566406 318.394531 312.363281 319.0625 312.03125 320.199219 Z M 319.84375 298.09375 C 320.3125 298.09375 320.847656 297.894531 321.179688 297.492188 C 322.648438 295.753906 324.050781 293.886719 325.519531 292.082031 C 326.121094 291.347656 325.988281 290.28125 325.253906 289.679688 C 324.519531 289.078125 323.449219 289.210938 322.851562 289.945312 C 321.449219 291.75 320.046875 293.550781 318.574219 295.289062 C 317.976562 296.023438 318.109375 297.089844 318.84375 297.691406 C 319.042969 297.960938 319.445312 298.09375 319.84375 298.09375 Z M 289.058594 349.648438 C 289.324219 349.785156 289.660156 349.851562 289.925781 349.851562 C 290.726562 349.851562 291.527344 349.382812 291.863281 348.582031 C 292.863281 346.3125 293.867188 344.039062 294.800781 341.769531 C 295.269531 340.699219 294.734375 339.433594 293.664062 338.964844 C 292.597656 338.496094 291.328125 339.03125 290.859375 340.101562 C 289.925781 342.304688 288.992188 344.574219 287.988281 346.84375 C 287.519531 347.914062 287.988281 349.183594 289.058594 349.648438 Z M 287.519531 329.546875 C 286.921875 328.8125 285.851562 328.746094 285.117188 329.347656 C 283.378906 330.816406 281.644531 332.285156 279.839844 333.6875 C 279.105469 334.289062 278.972656 335.359375 279.574219 336.09375 C 279.90625 336.492188 280.375 336.695312 280.910156 336.695312 C 281.308594 336.695312 281.644531 336.5625 281.976562 336.292969 C 283.78125 334.890625 285.519531 333.355469 287.320312 331.886719 C 288.054688 331.351562 288.121094 330.28125 287.519531 329.546875 Z M 278.4375 280.195312 C 278.640625 280.261719 278.839844 280.261719 279.105469 280.261719 C 280.042969 280.261719 280.84375 279.660156 281.175781 278.726562 C 281.910156 276.386719 282.644531 273.984375 283.3125 271.648438 C 283.648438 270.511719 282.980469 269.308594 281.84375 268.976562 C 280.710938 268.640625 279.507812 269.308594 279.171875 270.445312 C 278.503906 272.78125 277.769531 275.121094 277.035156 277.457031 C 276.703125 278.660156 277.371094 279.859375 278.4375 280.195312 Z M 286.386719 345.042969 C 285.316406 344.574219 284.046875 345.042969 283.582031 346.109375 C 282.578125 348.316406 281.578125 350.585938 280.507812 352.722656 C 279.976562 353.789062 280.441406 355.058594 281.511719 355.59375 C 281.777344 355.726562 282.113281 355.792969 282.445312 355.792969 C 283.246094 355.792969 284.046875 355.328125 284.382812 354.59375 C 285.449219 352.386719 286.453125 350.117188 287.453125 347.847656 C 287.921875 346.84375 287.453125 345.578125 286.386719 345.042969 Z M 281.308594 317.394531 C 281.710938 317.394531 282.113281 317.261719 282.445312 316.925781 C 284.117188 315.390625 285.851562 313.855469 287.519531 312.25 C 288.1875 311.582031 288.257812 310.515625 287.589844 309.847656 C 286.921875 309.179688 285.851562 309.113281 285.183594 309.78125 C 283.515625 311.316406 281.84375 312.917969 280.175781 314.386719 C 279.507812 314.988281 279.441406 316.058594 280.042969 316.792969 C 280.375 317.261719 280.84375 317.394531 281.308594 317.394531 Z M 316.503906 300.363281 C 315.769531 299.761719 314.703125 299.828125 314.101562 300.5625 C 312.632812 302.300781 311.097656 303.96875 309.558594 305.707031 C 308.957031 306.375 308.957031 307.441406 309.695312 308.109375 C 310.027344 308.378906 310.429688 308.578125 310.828125 308.578125 C 311.296875 308.578125 311.765625 308.378906 312.097656 308.042969 C 313.632812 306.375 315.167969 304.636719 316.707031 302.902344 C 317.308594 302.035156 317.238281 300.964844 316.503906 300.363281 Z M 367.328125 254.816406 C 367.394531 254.816406 367.460938 254.816406 367.527344 254.816406 C 368.597656 254.816406 369.53125 253.949219 369.664062 252.878906 C 369.867188 250.476562 370.066406 247.9375 370.265625 245.535156 C 370.332031 244.332031 369.464844 243.332031 368.261719 243.265625 C 367.0625 243.195312 366.058594 244.066406 365.992188 245.265625 C 365.792969 247.671875 365.589844 250.144531 365.390625 252.546875 C 365.257812 253.683594 366.125 254.683594 367.328125 254.816406 Z M 355.441406 263.765625 C 355.171875 266.171875 354.839844 268.640625 354.4375 271.046875 C 354.238281 272.246094 355.105469 273.316406 356.242188 273.449219 C 356.375 273.449219 356.441406 273.449219 356.574219 273.449219 C 357.644531 273.449219 358.511719 272.648438 358.710938 271.582031 C 359.046875 269.175781 359.378906 266.703125 359.714844 264.234375 C 359.847656 263.03125 359.046875 261.964844 357.84375 261.828125 C 356.640625 261.761719 355.574219 262.632812 355.441406 263.765625 Z M 372.46875 245.066406 C 372.535156 245.066406 372.535156 245.066406 372.605469 245.066406 C 373.738281 245.066406 374.675781 244.199219 374.742188 243.0625 C 374.875 240.59375 375.007812 238.121094 375.140625 235.652344 C 375.207031 234.449219 374.273438 233.445312 373.070312 233.378906 C 371.867188 233.3125 370.867188 234.25 370.800781 235.449219 C 370.667969 237.855469 370.535156 240.324219 370.398438 242.730469 C 370.398438 244 371.269531 245 372.46875 245.066406 Z M 355.773438 240.058594 C 356.042969 240.191406 356.242188 240.191406 356.507812 240.191406 C 357.109375 240.191406 357.777344 239.859375 358.042969 239.257812 C 359.046875 237.1875 359.980469 235.117188 360.984375 232.980469 C 361.382812 232.109375 360.984375 231.109375 360.113281 230.707031 C 359.246094 230.308594 358.246094 230.707031 357.84375 231.578125 C 356.910156 233.648438 355.90625 235.71875 354.972656 237.789062 C 354.570312 238.65625 354.90625 239.65625 355.773438 240.058594 Z M 360.046875 261.898438 C 359.914062 263.097656 360.78125 264.167969 361.917969 264.300781 C 361.984375 264.300781 362.117188 264.300781 362.183594 264.300781 C 363.253906 264.300781 364.1875 263.5 364.324219 262.429688 C 364.589844 259.960938 364.855469 257.488281 365.125 255.085938 C 365.257812 253.882812 364.390625 252.878906 363.1875 252.746094 C 361.984375 252.613281 360.984375 253.480469 360.851562 254.683594 C 360.582031 257.019531 360.316406 259.492188 360.046875 261.898438 Z M 349.429688 252.28125 C 349.695312 252.414062 349.964844 252.480469 350.230469 252.480469 C 350.832031 252.480469 351.433594 252.144531 351.699219 251.613281 C 352.769531 249.609375 353.835938 247.539062 354.90625 245.46875 C 355.308594 244.667969 354.972656 243.597656 354.171875 243.195312 C 353.304688 242.796875 352.300781 243.128906 351.902344 243.933594 C 350.898438 245.933594 349.832031 248.003906 348.761719 250.007812 C 348.292969 250.808594 348.628906 251.8125 349.429688 252.28125 Z M 318.175781 276.789062 C 318.710938 276.789062 319.175781 276.523438 319.511719 276.121094 C 320.847656 274.25 322.25 272.382812 323.519531 270.511719 C 324.050781 269.777344 323.851562 268.707031 323.117188 268.175781 C 322.316406 267.640625 321.3125 267.839844 320.78125 268.574219 C 319.511719 270.445312 318.109375 272.316406 316.773438 274.117188 C 316.238281 274.851562 316.371094 275.921875 317.105469 276.457031 C 317.441406 276.722656 317.839844 276.789062 318.175781 276.789062 Z M 313.632812 257.6875 C 314.636719 257.6875 315.503906 256.953125 315.703125 255.953125 C 316.171875 253.546875 316.640625 251.078125 317.105469 248.671875 C 317.308594 247.539062 316.503906 246.402344 315.371094 246.203125 C 314.234375 246.003906 313.097656 246.804688 312.898438 247.9375 C 312.5 250.34375 312.03125 252.746094 311.5625 255.152344 C 311.363281 256.285156 312.097656 257.421875 313.234375 257.6875 C 313.367188 257.6875 313.5 257.6875 313.632812 257.6875 Z M 308.691406 287.273438 C 309.027344 287.542969 309.359375 287.675781 309.761719 287.675781 C 310.226562 287.675781 310.761719 287.472656 311.097656 287.074219 C 312.566406 285.269531 313.96875 283.46875 315.4375 281.664062 C 316.039062 280.929688 315.90625 279.859375 315.167969 279.261719 C 314.433594 278.660156 313.367188 278.792969 312.765625 279.527344 C 311.363281 281.332031 309.960938 283.132812 308.492188 284.871094 C 307.824219 285.605469 307.957031 286.671875 308.691406 287.273438 Z M 325.1875 240.125 C 325.320312 240.125 325.386719 240.125 325.519531 240.125 C 326.589844 240.125 327.457031 239.324219 327.660156 238.253906 C 327.992188 235.851562 328.324219 233.378906 328.660156 230.910156 C 328.792969 229.707031 327.992188 228.636719 326.789062 228.503906 C 325.589844 228.371094 324.519531 229.171875 324.386719 230.375 C 324.117188 232.777344 323.785156 235.25 323.382812 237.652344 C 323.183594 238.855469 323.984375 239.992188 325.1875 240.125 Z M 319.710938 249.074219 C 320.710938 249.074219 321.648438 248.339844 321.847656 247.269531 C 322.25 244.867188 322.648438 242.394531 323.050781 239.992188 C 323.25 238.789062 322.449219 237.722656 321.246094 237.519531 C 320.046875 237.320312 318.976562 238.121094 318.777344 239.324219 C 318.441406 241.726562 318.042969 244.132812 317.640625 246.535156 C 317.441406 247.671875 318.242188 248.808594 319.378906 249.007812 C 319.445312 249.074219 319.578125 249.074219 319.710938 249.074219 Z M 302.011719 297.492188 C 303.550781 295.824219 305.085938 294.085938 306.621094 292.351562 C 307.222656 291.613281 307.15625 290.546875 306.421875 289.945312 C 305.6875 289.34375 304.617188 289.410156 304.015625 290.144531 C 302.546875 291.882812 301.011719 293.550781 299.476562 295.289062 C 298.875 295.957031 298.875 297.023438 299.609375 297.691406 C 299.941406 297.960938 300.34375 298.160156 300.746094 298.160156 C 301.210938 298.027344 301.679688 297.894531 302.011719 297.492188 Z M 296.535156 343.304688 C 296.804688 343.4375 297.070312 343.4375 297.339844 343.4375 C 298.207031 343.4375 299.007812 342.90625 299.34375 342.105469 C 300.277344 339.832031 301.210938 337.496094 302.082031 335.226562 C 302.480469 334.089844 301.945312 332.886719 300.8125 332.488281 C 299.675781 332.085938 298.472656 332.621094 298.074219 333.753906 C 297.203125 336.027344 296.269531 338.296875 295.402344 340.566406 C 294.933594 341.636719 295.46875 342.90625 296.535156 343.304688 Z M 291.328125 307.976562 C 291.796875 307.976562 292.195312 307.84375 292.53125 307.507812 C 294.132812 305.90625 295.800781 304.238281 297.339844 302.566406 C 298.007812 301.898438 297.941406 300.832031 297.273438 300.164062 C 296.605469 299.496094 295.535156 299.5625 294.867188 300.230469 C 293.332031 301.898438 291.730469 303.503906 290.125 305.105469 C 289.457031 305.773438 289.457031 306.84375 290.125 307.507812 C 290.460938 307.84375 290.859375 307.976562 291.328125 307.976562 Z M 297.671875 320.332031 C 297.003906 319.664062 295.9375 319.597656 295.269531 320.265625 C 293.597656 321.800781 291.929688 323.402344 290.257812 324.875 C 289.589844 325.472656 289.523438 326.542969 290.125 327.277344 C 290.460938 327.679688 290.925781 327.8125 291.394531 327.8125 C 291.796875 327.8125 292.195312 327.679688 292.53125 327.410156 C 294.199219 325.875 295.9375 324.339844 297.605469 322.738281 C 298.339844 322.070312 298.339844 321 297.671875 320.332031 Z M 303.882812 336.761719 C 304.152344 336.828125 304.417969 336.894531 304.617188 336.894531 C 305.484375 336.894531 306.289062 336.359375 306.621094 335.492188 C 307.488281 333.222656 308.359375 330.882812 309.160156 328.546875 C 309.558594 327.410156 308.957031 326.210938 307.824219 325.808594 C 306.6875 325.40625 305.484375 326.007812 305.085938 327.144531 C 304.285156 329.414062 303.414062 331.753906 302.613281 334.023438 C 302.214844 335.089844 302.746094 336.292969 303.882812 336.761719 Z M 307.421875 312.984375 C 308.089844 312.316406 308.023438 311.25 307.355469 310.582031 C 306.6875 309.914062 305.621094 309.980469 304.953125 310.648438 C 303.414062 312.316406 301.8125 313.921875 300.210938 315.523438 C 299.542969 316.191406 299.542969 317.261719 300.210938 317.929688 C 300.542969 318.261719 300.945312 318.394531 301.414062 318.394531 C 301.8125 318.394531 302.28125 318.261719 302.613281 317.929688 C 304.21875 316.324219 305.820312 314.65625 307.421875 312.984375 Z M 264.414062 327.476562 C 262.609375 328.878906 260.742188 330.214844 258.9375 331.550781 C 258.203125 332.085938 258.003906 333.15625 258.539062 333.890625 C 258.871094 334.355469 259.40625 334.625 259.941406 334.625 C 260.273438 334.625 260.609375 334.492188 260.941406 334.289062 C 262.8125 332.953125 264.679688 331.550781 266.484375 330.148438 C 267.21875 329.546875 267.351562 328.546875 266.820312 327.746094 C 266.21875 327.078125 265.148438 326.945312 264.414062 327.476562 Z M 316.371094 334.890625 C 315.238281 334.492188 314.035156 335.089844 313.632812 336.226562 C 312.832031 338.5625 311.964844 340.835938 311.164062 343.105469 C 310.761719 344.242188 311.296875 345.441406 312.429688 345.84375 C 312.699219 345.910156 312.964844 345.976562 313.167969 345.976562 C 314.035156 345.976562 314.835938 345.441406 315.167969 344.574219 C 316.039062 342.304688 316.90625 339.964844 317.707031 337.628906 C 318.042969 336.492188 317.441406 335.292969 316.371094 334.890625 Z M 323.25 327.878906 C 322.113281 327.542969 320.914062 328.144531 320.578125 329.28125 C 319.84375 331.550781 319.042969 333.890625 318.242188 336.226562 C 317.839844 337.363281 318.441406 338.5625 319.578125 338.964844 C 319.777344 339.03125 320.046875 339.097656 320.246094 339.097656 C 321.113281 339.097656 321.980469 338.5625 322.25 337.628906 C 323.050781 335.292969 323.851562 332.953125 324.585938 330.617188 C 324.988281 329.480469 324.320312 328.28125 323.25 327.878906 Z M 334.203125 305.839844 C 334.804688 303.503906 335.40625 301.03125 335.9375 298.628906 C 336.207031 297.492188 335.472656 296.289062 334.335938 296.023438 C 333.203125 295.753906 332 296.492188 331.730469 297.625 C 331.199219 300.03125 330.597656 302.367188 329.996094 304.703125 C 329.730469 305.839844 330.394531 307.042969 331.53125 307.308594 C 331.730469 307.375 331.867188 307.375 332.066406 307.375 C 333.066406 307.441406 333.9375 306.84375 334.203125 305.839844 Z M 327.523438 313.71875 C 328.191406 311.382812 328.859375 308.980469 329.460938 306.574219 C 329.796875 305.4375 329.0625 304.238281 327.925781 303.96875 C 326.789062 303.636719 325.589844 304.371094 325.320312 305.507812 C 324.71875 307.84375 324.050781 310.246094 323.382812 312.585938 C 323.050781 313.71875 323.71875 314.921875 324.851562 315.257812 C 325.054688 315.324219 325.253906 315.324219 325.453125 315.324219 C 326.390625 315.257812 327.257812 314.65625 327.523438 313.71875 Z M 329.929688 320.597656 C 328.792969 320.265625 327.589844 320.933594 327.257812 322.070312 C 326.589844 324.40625 325.855469 326.742188 325.121094 329.082031 C 324.785156 330.214844 325.386719 331.417969 326.523438 331.753906 C 326.722656 331.820312 326.921875 331.820312 327.191406 331.820312 C 328.125 331.820312 328.925781 331.21875 329.261719 330.28125 C 329.996094 327.945312 330.730469 325.542969 331.398438 323.203125 C 331.730469 322.136719 331.0625 320.933594 329.929688 320.597656 Z M 320.78125 321.265625 C 321.515625 318.929688 322.25 316.527344 322.917969 314.1875 C 323.25 313.050781 322.582031 311.851562 321.449219 311.515625 C 320.3125 311.183594 319.109375 311.851562 318.777344 312.984375 C 318.109375 315.324219 317.375 317.660156 316.640625 320 C 316.304688 321.132812 316.90625 322.335938 318.042969 322.667969 C 318.242188 322.738281 318.441406 322.738281 318.710938 322.738281 C 319.644531 322.738281 320.445312 322.136719 320.78125 321.265625 Z M 279.839844 365.613281 C 278.773438 365.078125 277.503906 365.476562 276.96875 366.546875 C 275.835938 368.683594 274.699219 370.886719 273.5625 373.023438 C 272.960938 374.09375 273.363281 375.363281 274.433594 375.960938 C 274.765625 376.164062 275.097656 376.230469 275.433594 376.230469 C 276.167969 376.230469 276.902344 375.828125 277.304688 375.09375 C 278.503906 372.957031 279.640625 370.753906 280.777344 368.550781 C 281.308594 367.414062 280.910156 366.144531 279.839844 365.613281 Z M 287.453125 360.070312 C 286.386719 359.535156 285.117188 360 284.582031 361.070312 C 283.515625 363.273438 282.445312 365.476562 281.308594 367.613281 C 280.777344 368.683594 281.175781 369.953125 282.246094 370.488281 C 282.578125 370.621094 282.914062 370.753906 283.246094 370.753906 C 284.046875 370.753906 284.78125 370.351562 285.183594 369.550781 C 286.320312 367.347656 287.386719 365.144531 288.457031 362.941406 C 288.921875 361.804688 288.523438 360.535156 287.453125 360.070312 Z M 309.292969 341.636719 C 308.15625 341.234375 306.957031 341.769531 306.554688 342.90625 C 305.6875 345.175781 304.816406 347.445312 303.882812 349.71875 C 303.414062 350.785156 303.949219 352.054688 305.085938 352.523438 C 305.351562 352.65625 305.621094 352.65625 305.886719 352.65625 C 306.753906 352.65625 307.554688 352.121094 307.890625 351.320312 C 308.824219 349.050781 309.761719 346.710938 310.628906 344.441406 C 310.960938 343.238281 310.429688 342.035156 309.292969 341.636719 Z M 294.867188 354.191406 C 293.800781 353.722656 292.53125 354.191406 292.0625 355.261719 C 291.0625 357.464844 290.058594 359.734375 288.992188 361.871094 C 288.457031 362.941406 288.921875 364.207031 289.992188 364.742188 C 290.257812 364.875 290.59375 364.945312 290.925781 364.945312 C 291.730469 364.945312 292.53125 364.476562 292.863281 363.742188 C 293.933594 361.539062 294.933594 359.265625 295.9375 356.996094 C 296.402344 355.929688 295.9375 354.660156 294.867188 354.191406 Z M 274.699219 361.605469 C 275.5 361.605469 276.234375 361.203125 276.636719 360.402344 C 277.769531 358.199219 278.839844 355.996094 279.90625 353.789062 C 280.441406 352.722656 279.976562 351.453125 278.90625 350.917969 C 277.835938 350.386719 276.570312 350.851562 276.035156 351.921875 C 274.964844 354.125 273.898438 356.328125 272.761719 358.464844 C 272.226562 359.535156 272.628906 360.804688 273.695312 361.335938 C 274.097656 361.539062 274.433594 361.605469 274.699219 361.605469 Z M 302.148438 348.046875 C 301.078125 347.578125 299.808594 348.113281 299.34375 349.183594 C 298.40625 351.453125 297.472656 353.722656 296.46875 355.929688 C 296.003906 356.996094 296.46875 358.265625 297.539062 358.734375 C 297.804688 358.867188 298.140625 358.933594 298.40625 358.933594 C 299.207031 358.933594 300.011719 358.464844 300.34375 357.664062 C 301.34375 355.394531 302.28125 353.121094 303.28125 350.851562 C 303.75 349.71875 303.28125 348.515625 302.148438 348.046875 Z M 274.03125 293.753906 C 273.230469 296.023438 272.363281 298.359375 271.558594 300.632812 C 271.160156 301.765625 271.695312 302.96875 272.828125 303.367188 C 273.097656 303.4375 273.363281 303.503906 273.5625 303.503906 C 274.433594 303.503906 275.234375 302.96875 275.566406 302.101562 C 276.433594 299.828125 277.304688 297.425781 278.105469 295.15625 C 278.503906 294.019531 277.90625 292.816406 276.769531 292.417969 C 275.632812 292.082031 274.433594 292.683594 274.03125 293.753906 Z M 360.78125 279.996094 C 359.582031 279.792969 358.511719 280.597656 358.3125 281.796875 C 357.976562 284.203125 357.578125 286.605469 357.175781 289.011719 C 356.976562 290.144531 357.777344 291.28125 358.914062 291.480469 C 359.046875 291.480469 359.179688 291.480469 359.246094 291.480469 C 360.25 291.480469 361.183594 290.746094 361.382812 289.679688 C 361.785156 287.273438 362.183594 284.804688 362.585938 282.398438 C 362.71875 281.265625 361.917969 280.128906 360.78125 279.996094 Z M 371.667969 261.828125 C 370.464844 261.695312 369.464844 262.5625 369.332031 263.765625 C 369.0625 266.171875 368.796875 268.640625 368.53125 271.046875 C 368.394531 272.246094 369.265625 273.316406 370.398438 273.449219 C 370.464844 273.449219 370.601562 273.449219 370.667969 273.449219 C 371.734375 273.449219 372.671875 272.648438 372.804688 271.582031 C 373.070312 269.175781 373.339844 266.703125 373.605469 264.234375 C 373.671875 262.964844 372.804688 261.898438 371.667969 261.828125 Z M 376.746094 252.28125 C 375.542969 252.210938 374.539062 253.082031 374.472656 254.28125 C 374.273438 256.6875 374.074219 259.160156 373.871094 261.5625 C 373.738281 262.765625 374.605469 263.765625 375.808594 263.898438 C 375.875 263.898438 375.941406 263.898438 376.007812 263.898438 C 377.078125 263.898438 378.011719 263.03125 378.148438 261.964844 C 378.347656 259.492188 378.546875 257.019531 378.746094 254.617188 C 378.816406 253.414062 377.945312 252.414062 376.746094 252.28125 Z M 364.589844 361.269531 C 345.957031 378.632812 321.980469 388.117188 296.605469 388.117188 C 295.402344 388.117188 294.265625 388.117188 293.0625 388.050781 C 282.714844 387.71875 272.628906 385.78125 263.078125 382.375 C 261.675781 381.90625 260.339844 381.371094 259.003906 380.839844 C 256.265625 379.703125 253.527344 378.5 250.855469 377.097656 C 250.324219 376.832031 249.855469 376.5625 249.320312 376.296875 C 248.921875 376.097656 248.453125 375.828125 248.050781 375.5625 C 246.785156 374.894531 245.582031 374.160156 244.378906 373.359375 C 240.707031 371.085938 237.234375 368.617188 233.894531 365.945312 C 233.761719 365.878906 233.695312 365.746094 233.558594 365.679688 C 230.085938 362.804688 226.75 359.734375 223.675781 356.394531 C 220.46875 352.988281 217.597656 349.382812 214.925781 345.644531 C 214.058594 344.375 213.191406 343.105469 212.324219 341.769531 C 210.71875 339.296875 209.316406 336.761719 207.980469 334.15625 C 207.179688 332.6875 206.445312 331.152344 205.777344 329.613281 C 199.433594 315.722656 196.429688 300.496094 196.960938 284.871094 C 197.898438 258.222656 209.117188 233.582031 228.617188 215.347656 C 247.984375 197.117188 273.363281 187.632812 300.011719 188.566406 C 310.828125 188.96875 321.3125 191.039062 331.199219 194.644531 C 332.601562 195.179688 334.003906 195.714844 335.40625 196.316406 C 338.542969 197.652344 341.550781 199.121094 344.554688 200.722656 C 345.15625 201.054688 345.757812 201.390625 346.289062 201.722656 C 354.773438 206.601562 362.585938 212.8125 369.464844 220.15625 C 371.601562 222.425781 373.605469 224.765625 375.476562 227.167969 C 376.945312 229.039062 378.28125 230.910156 379.617188 232.84375 C 381.152344 235.117188 382.554688 237.519531 383.890625 239.859375 C 384.625 241.261719 385.359375 242.597656 386.09375 244.066406 C 404.992188 282.597656 397.515625 330.550781 364.589844 361.269531 Z M 383.554688 246.804688 C 383.488281 248.605469 383.355469 250.410156 383.222656 252.210938 C 383.15625 253.347656 382.21875 254.214844 381.085938 254.214844 C 381.019531 254.214844 381.019531 254.214844 380.953125 254.214844 C 379.75 254.148438 378.882812 253.148438 378.949219 251.945312 C 379.082031 249.542969 379.214844 247.070312 379.347656 244.667969 C 379.414062 243.53125 380.285156 242.664062 381.417969 242.664062 C 380.015625 240.058594 378.546875 237.585938 376.878906 235.117188 C 375.941406 234.847656 375.273438 233.980469 375.339844 232.980469 C 375.339844 232.914062 375.339844 232.914062 375.339844 232.84375 C 372.871094 229.304688 370.066406 225.898438 367.0625 222.628906 C 366.660156 222.226562 366.324219 221.828125 365.925781 221.425781 C 365.859375 221.558594 365.792969 221.757812 365.726562 221.894531 C 365.058594 223.496094 364.390625 225.164062 363.722656 226.703125 C 363.453125 227.371094 362.785156 227.703125 362.183594 227.703125 C 361.984375 227.703125 361.71875 227.636719 361.515625 227.570312 C 360.648438 227.167969 360.25 226.234375 360.648438 225.367188 C 361.515625 223.363281 362.386719 221.292969 363.1875 219.222656 C 363.1875 219.15625 363.253906 219.089844 363.253906 219.019531 C 363.320312 218.953125 363.320312 218.820312 363.386719 218.753906 C 360.851562 216.351562 358.246094 214.011719 355.441406 211.875 C 355.375 212.007812 355.308594 212.210938 355.238281 212.34375 C 354.707031 213.613281 354.171875 214.949219 353.636719 216.214844 C 353.371094 216.882812 352.769531 217.21875 352.101562 217.21875 C 351.902344 217.21875 351.632812 217.152344 351.433594 217.085938 C 350.566406 216.683594 350.164062 215.75 350.566406 214.878906 C 351.234375 213.34375 351.832031 211.808594 352.5 210.207031 C 352.570312 210.074219 352.636719 209.871094 352.703125 209.738281 C 349.898438 207.734375 347.027344 205.933594 344.085938 204.195312 C 344.019531 206 343.886719 207.800781 343.753906 209.671875 C 343.6875 210.808594 342.75 211.675781 341.617188 211.675781 C 341.550781 211.675781 341.550781 211.675781 341.484375 211.675781 C 340.28125 211.609375 339.414062 210.605469 339.480469 209.40625 C 339.613281 207 339.746094 204.53125 339.878906 202.125 C 339.878906 202.125 339.878906 202.058594 339.878906 202.058594 C 338.34375 201.324219 336.875 200.589844 335.273438 199.921875 C 335.273438 200.1875 335.273438 200.390625 335.203125 200.65625 C 335.136719 201.792969 334.203125 202.660156 333.066406 202.660156 C 333 202.660156 333 202.660156 332.933594 202.660156 C 331.730469 202.59375 330.863281 201.589844 330.929688 200.390625 C 330.996094 199.652344 330.996094 198.917969 331.0625 198.25 C 321.246094 194.511719 310.761719 192.375 299.941406 191.972656 C 298.808594 191.90625 297.671875 191.90625 296.539062 191.90625 C 272.027344 191.90625 248.855469 201.054688 230.890625 217.820312 C 212.054688 235.382812 201.171875 259.226562 200.300781 284.9375 C 199.769531 301.03125 203.105469 316.726562 210.050781 330.816406 C 211.253906 328.945312 212.390625 327.011719 213.523438 325.140625 C 214.125 324.140625 215.460938 323.804688 216.464844 324.40625 C 217.464844 325.007812 217.800781 326.34375 217.199219 327.34375 C 215.929688 329.480469 214.660156 331.617188 213.324219 333.6875 C 212.992188 334.15625 212.523438 334.492188 211.988281 334.625 C 212.722656 335.960938 213.523438 337.296875 214.328125 338.628906 C 214.460938 338.496094 214.527344 338.363281 214.726562 338.296875 C 215.394531 337.828125 216.328125 337.761719 217.132812 338.230469 C 218.132812 338.832031 218.46875 340.167969 217.800781 341.167969 C 217.597656 341.503906 217.398438 341.769531 217.199219 342.105469 C 217.132812 342.238281 216.996094 342.371094 216.929688 342.570312 C 219.269531 345.976562 221.804688 349.25 224.542969 352.320312 C 224.679688 352.253906 224.8125 352.1875 225.011719 352.121094 C 226.679688 351.253906 228.417969 350.453125 230.085938 349.515625 C 230.890625 349.117188 231.957031 349.382812 232.359375 350.25 C 232.824219 351.050781 232.492188 352.121094 231.625 352.523438 C 230.222656 353.257812 228.820312 353.992188 227.347656 354.726562 C 227.214844 354.792969 227.015625 354.859375 226.882812 354.925781 C 229.488281 357.664062 232.15625 360.203125 235.03125 362.539062 C 235.164062 362.472656 235.363281 362.40625 235.496094 362.273438 C 237.03125 361.539062 238.570312 360.734375 240.105469 359.933594 C 240.90625 359.46875 241.976562 359.800781 242.375 360.667969 C 242.84375 361.472656 242.507812 362.539062 241.640625 362.941406 C 240.574219 363.472656 239.4375 364.074219 238.367188 364.609375 C 238.234375 364.675781 238.035156 364.742188 237.902344 364.875 C 240.90625 367.214844 244.046875 369.351562 247.316406 371.289062 C 247.585938 371.355469 247.851562 371.421875 248.117188 371.554688 C 248.320312 371.6875 248.519531 371.824219 248.652344 372.023438 C 249.054688 372.289062 249.523438 372.488281 249.921875 372.757812 C 250.992188 371.085938 251.992188 369.351562 253.0625 367.613281 C 253.660156 366.613281 254.996094 366.277344 256 366.878906 C 257 367.480469 257.335938 368.816406 256.734375 369.820312 C 255.730469 371.488281 254.730469 373.15625 253.730469 374.828125 C 256.066406 375.960938 258.402344 377.03125 260.808594 377.964844 C 261.074219 377.566406 261.277344 377.164062 261.542969 376.765625 C 262.144531 375.761719 263.480469 375.429688 264.480469 376.03125 C 265.484375 376.628906 265.816406 377.964844 265.214844 378.96875 C 265.082031 379.167969 265.015625 379.300781 264.882812 379.503906 C 265.082031 379.570312 265.28125 379.636719 265.414062 379.703125 C 265.347656 379.234375 265.414062 378.699219 265.683594 378.234375 C 266.886719 376.164062 268.085938 374.027344 269.289062 371.890625 C 269.890625 370.820312 271.160156 370.488281 272.226562 371.019531 C 273.296875 371.621094 273.628906 372.890625 273.097656 373.960938 C 271.894531 376.097656 270.691406 378.300781 269.421875 380.4375 C 269.355469 380.636719 269.222656 380.769531 269.089844 380.90625 C 276.835938 383.175781 284.917969 384.511719 293.265625 384.84375 C 318.976562 385.78125 343.554688 376.5625 362.386719 359 C 393.773438 329.414062 401.121094 283.734375 383.554688 246.804688 Z M 349.027344 297.089844 C 347.894531 296.824219 346.757812 297.625 346.492188 298.761719 C 346.023438 301.164062 345.488281 303.570312 344.957031 305.90625 C 344.6875 307.042969 345.421875 308.246094 346.558594 308.445312 C 346.691406 308.511719 346.890625 308.511719 347.027344 308.511719 C 348.027344 308.511719 348.894531 307.84375 349.097656 306.84375 C 349.628906 304.4375 350.164062 302.035156 350.632812 299.628906 C 350.898438 298.425781 350.164062 297.292969 349.027344 297.089844 Z M 354.972656 288.675781 C 353.835938 288.476562 352.703125 289.277344 352.5 290.414062 C 352.101562 292.816406 351.632812 295.222656 351.167969 297.625 C 350.964844 298.761719 351.699219 299.894531 352.835938 300.164062 C 352.96875 300.164062 353.101562 300.230469 353.238281 300.230469 C 354.238281 300.230469 355.105469 299.496094 355.308594 298.492188 C 355.773438 296.089844 356.242188 293.617188 356.710938 291.214844 C 356.910156 290.011719 356.175781 288.878906 354.972656 288.675781 Z M 342.816406 305.171875 C 341.683594 304.90625 340.480469 305.640625 340.214844 306.773438 C 339.679688 309.113281 339.078125 311.515625 338.476562 313.855469 C 338.210938 314.988281 338.878906 316.191406 340.011719 316.457031 C 340.214844 316.527344 340.347656 316.527344 340.546875 316.527344 C 341.484375 316.527344 342.351562 315.859375 342.617188 314.921875 C 343.21875 312.519531 343.820312 310.113281 344.355469 307.710938 C 344.6875 306.640625 344.019531 305.4375 342.816406 305.171875 Z M 346.824219 289.34375 C 347.292969 286.941406 347.761719 284.46875 348.226562 282.066406 C 348.429688 280.929688 347.625 279.792969 346.492188 279.59375 C 345.355469 279.394531 344.21875 280.195312 344.019531 281.332031 C 343.621094 283.734375 343.152344 286.140625 342.683594 288.542969 C 342.484375 289.679688 343.21875 290.8125 344.355469 291.082031 C 344.488281 291.082031 344.621094 291.148438 344.753906 291.148438 C 345.757812 291.015625 346.625 290.347656 346.824219 289.34375 Z M 352.902344 280.597656 C 353.304688 278.191406 353.703125 275.71875 354.105469 273.316406 C 354.304688 272.113281 353.503906 271.046875 352.300781 270.84375 C 351.097656 270.644531 350.03125 271.445312 349.832031 272.648438 C 349.496094 275.054688 349.097656 277.457031 348.695312 279.859375 C 348.496094 280.996094 349.296875 282.132812 350.429688 282.332031 C 350.566406 282.332031 350.699219 282.332031 350.765625 282.332031 C 351.765625 282.398438 352.703125 281.664062 352.902344 280.597656 Z M 336.472656 313.050781 C 335.339844 312.71875 334.136719 313.453125 333.871094 314.589844 C 333.269531 316.925781 332.601562 319.332031 331.933594 321.667969 C 331.597656 322.804688 332.265625 324.003906 333.402344 324.339844 C 333.601562 324.40625 333.800781 324.40625 334.003906 324.40625 C 334.9375 324.40625 335.804688 323.804688 336.074219 322.871094 C 336.742188 320.53125 337.410156 318.128906 338.007812 315.722656 C 338.277344 314.523438 337.609375 313.320312 336.472656 313.050781 Z M 366.324219 271.046875 C 365.125 270.914062 364.054688 271.714844 363.921875 272.914062 C 363.65625 275.320312 363.320312 277.789062 362.921875 280.195312 C 362.71875 281.398438 363.585938 282.464844 364.722656 282.597656 C 364.855469 282.597656 364.921875 282.597656 365.058594 282.597656 C 366.125 282.597656 366.992188 281.796875 367.195312 280.730469 C 367.527344 278.324219 367.863281 275.855469 368.195312 273.382812 C 368.328125 272.246094 367.527344 271.179688 366.324219 271.046875 Z M 241.90625 313.1875 C 242.175781 313.320312 242.507812 313.386719 242.84375 313.386719 C 243.644531 313.386719 244.445312 312.917969 244.78125 312.183594 C 245.847656 309.980469 246.851562 307.710938 247.851562 305.4375 C 248.320312 304.371094 247.851562 303.101562 246.785156 302.632812 C 245.714844 302.167969 244.445312 302.632812 243.976562 303.703125 C 242.976562 305.90625 241.976562 308.175781 240.90625 310.316406 C 240.371094 311.449219 240.839844 312.71875 241.90625 313.1875 Z M 234.160156 318.929688 C 234.496094 319.0625 234.828125 319.195312 235.164062 319.195312 C 235.964844 319.195312 236.699219 318.796875 237.101562 317.996094 C 238.234375 315.789062 239.304688 313.585938 240.371094 311.382812 C 240.90625 310.316406 240.4375 309.046875 239.371094 308.511719 C 238.300781 307.976562 237.03125 308.445312 236.5 309.511719 C 235.429688 311.71875 234.363281 313.921875 233.226562 316.058594 C 232.691406 317.125 233.09375 318.394531 234.160156 318.929688 Z M 218.398438 329.480469 C 218.734375 329.683594 219.136719 329.75 219.46875 329.75 C 220.203125 329.75 220.9375 329.347656 221.339844 328.679688 C 222.539062 326.609375 223.808594 324.40625 225.011719 322.203125 C 225.613281 321.132812 225.210938 319.863281 224.144531 319.261719 C 223.074219 318.664062 221.804688 319.0625 221.207031 320.132812 C 220.003906 322.269531 218.800781 324.40625 217.597656 326.476562 C 216.996094 327.542969 217.332031 328.878906 218.398438 329.480469 Z M 249.519531 307.175781 C 249.789062 307.308594 250.121094 307.375 250.390625 307.375 C 251.191406 307.375 251.992188 306.910156 252.328125 306.105469 C 253.328125 303.835938 254.261719 301.566406 255.265625 299.296875 C 255.730469 298.226562 255.199219 296.957031 254.128906 296.492188 C 253.0625 296.023438 251.792969 296.558594 251.324219 297.625 C 250.390625 299.894531 249.453125 302.167969 248.453125 304.371094 C 247.917969 305.4375 248.386719 306.707031 249.519531 307.175781 Z M 226.347656 324.339844 C 226.679688 324.539062 227.015625 324.605469 227.347656 324.605469 C 228.082031 324.605469 228.820312 324.207031 229.21875 323.472656 C 230.421875 321.332031 231.558594 319.128906 232.691406 316.925781 C 233.226562 315.859375 232.824219 314.589844 231.757812 314.054688 C 230.6875 313.519531 229.417969 313.921875 228.886719 314.988281 C 227.75 317.125 226.613281 319.332031 225.480469 321.46875 C 224.878906 322.46875 225.277344 323.804688 226.347656 324.339844 Z M 271.425781 287.40625 C 271.625 287.476562 271.894531 287.542969 272.09375 287.542969 C 272.960938 287.542969 273.832031 287.007812 274.097656 286.070312 C 274.898438 283.734375 275.699219 281.398438 276.433594 279.058594 C 276.769531 277.925781 276.167969 276.722656 275.03125 276.386719 C 273.898438 276.054688 272.695312 276.65625 272.363281 277.789062 C 271.625 280.128906 270.824219 282.398438 270.023438 284.738281 C 269.757812 285.804688 270.359375 287.007812 271.425781 287.40625 Z M 275.03125 318.929688 C 273.296875 320.398438 271.558594 321.867188 269.757812 323.269531 C 269.023438 323.871094 268.890625 324.941406 269.488281 325.675781 C 269.824219 326.074219 270.292969 326.277344 270.824219 326.277344 C 271.226562 326.277344 271.558594 326.140625 271.894531 325.875 C 273.695312 324.472656 275.433594 322.9375 277.238281 321.46875 C 277.972656 320.867188 278.039062 319.796875 277.4375 319.0625 C 276.835938 318.460938 275.765625 318.328125 275.03125 318.929688 Z M 224.878906 333.488281 C 223.875 332.886719 222.539062 333.222656 221.941406 334.222656 C 220.738281 336.292969 219.402344 338.429688 218.132812 340.5 C 217.53125 341.503906 217.800781 342.839844 218.800781 343.4375 C 219.136719 343.640625 219.535156 343.773438 219.9375 343.773438 C 220.671875 343.773438 221.339844 343.4375 221.738281 342.769531 C 223.074219 340.699219 224.34375 338.5625 225.613281 336.425781 C 226.214844 335.359375 225.878906 334.089844 224.878906 333.488281 Z M 266.953125 300.429688 C 266.082031 302.703125 265.214844 304.972656 264.28125 307.242188 C 263.8125 308.3125 264.347656 309.578125 265.484375 310.046875 C 265.75 310.179688 266.015625 310.179688 266.285156 310.179688 C 267.152344 310.179688 267.953125 309.648438 268.289062 308.84375 C 269.222656 306.574219 270.15625 304.238281 271.027344 301.964844 C 271.425781 300.832031 270.890625 299.628906 269.757812 299.226562 C 268.621094 298.761719 267.417969 299.296875 266.953125 300.429688 Z M 264.28125 294.285156 C 264.546875 294.351562 264.816406 294.421875 265.015625 294.421875 C 265.882812 294.421875 266.683594 293.886719 267.019531 293.019531 C 267.886719 290.746094 268.753906 288.410156 269.554688 286.070312 C 269.957031 284.9375 269.355469 283.734375 268.222656 283.335938 C 267.085938 282.933594 265.882812 283.535156 265.484375 284.667969 C 264.679688 286.941406 263.8125 289.277344 263.011719 291.546875 C 262.609375 292.617188 263.144531 293.886719 264.28125 294.285156 Z M 256.933594 300.898438 C 257.203125 301.03125 257.46875 301.03125 257.734375 301.03125 C 258.605469 301.03125 259.40625 300.496094 259.738281 299.695312 C 260.675781 297.425781 261.609375 295.089844 262.476562 292.816406 C 262.878906 291.683594 262.34375 290.480469 261.207031 290.078125 C 260.074219 289.679688 258.871094 290.210938 258.46875 291.347656 C 257.601562 293.617188 256.734375 295.890625 255.800781 298.160156 C 255.332031 299.230469 255.867188 300.429688 256.933594 300.898438 Z M 258.003906 316.324219 C 258.269531 316.457031 258.605469 316.527344 258.871094 316.527344 C 259.671875 316.527344 260.472656 316.058594 260.808594 315.257812 C 261.808594 312.984375 262.746094 310.714844 263.746094 308.445312 C 264.214844 307.375 263.679688 306.105469 262.609375 305.640625 C 261.542969 305.171875 260.273438 305.707031 259.804688 306.773438 C 258.871094 309.046875 257.9375 311.25 256.933594 313.519531 C 256.398438 314.589844 256.933594 315.859375 258.003906 316.324219 Z M 258.671875 352.789062 C 259.003906 352.789062 259.273438 352.722656 259.605469 352.523438 C 261.542969 351.320312 263.480469 349.984375 265.347656 348.714844 C 266.152344 348.179688 266.351562 347.113281 265.816406 346.378906 C 265.28125 345.578125 264.214844 345.375 263.480469 345.910156 C 261.609375 347.179688 259.671875 348.449219 257.800781 349.648438 C 257 350.183594 256.800781 351.1875 257.269531 351.988281 C 257.601562 352.453125 258.136719 352.789062 258.671875 352.789062 Z M 276.902344 338.230469 C 276.300781 337.496094 275.300781 337.363281 274.5 337.894531 C 272.695312 339.296875 270.824219 340.632812 269.023438 341.96875 C 268.289062 342.503906 268.085938 343.574219 268.621094 344.308594 C 268.957031 344.773438 269.488281 345.042969 270.023438 345.042969 C 270.359375 345.042969 270.691406 344.910156 271.027344 344.707031 C 272.894531 343.371094 274.765625 341.96875 276.570312 340.566406 C 277.304688 340.035156 277.503906 338.964844 276.902344 338.230469 Z M 255.265625 311.71875 C 254.195312 311.25 252.925781 311.71875 252.460938 312.785156 C 251.457031 314.988281 250.457031 317.261719 249.386719 319.398438 C 248.855469 320.464844 249.320312 321.734375 250.390625 322.269531 C 250.65625 322.402344 250.992188 322.46875 251.324219 322.46875 C 252.125 322.46875 252.925781 322 253.261719 321.265625 C 254.328125 319.0625 255.332031 316.792969 256.332031 314.523438 C 256.867188 313.519531 256.332031 312.25 255.265625 311.71875 Z M 271.359375 356.460938 C 270.292969 355.929688 269.023438 356.328125 268.488281 357.398438 C 267.351562 359.535156 266.21875 361.738281 265.082031 363.875 C 264.480469 364.945312 264.882812 366.210938 265.949219 366.8125 C 266.285156 367.015625 266.617188 367.082031 266.953125 367.082031 C 267.6875 367.082031 268.421875 366.679688 268.820312 365.945312 C 270.023438 363.808594 271.160156 361.605469 272.292969 359.402344 C 272.828125 358.332031 272.429688 357.0625 271.359375 356.460938 Z M 263.746094 361.804688 C 262.679688 361.203125 261.410156 361.605469 260.808594 362.671875 C 259.671875 364.808594 258.402344 366.945312 257.203125 369.015625 C 256.601562 370.019531 256.933594 371.355469 258.003906 371.957031 C 258.335938 372.15625 258.738281 372.222656 259.070312 372.222656 C 259.804688 372.222656 260.539062 371.824219 260.941406 371.15625 C 262.210938 369.015625 263.414062 366.878906 264.613281 364.675781 C 265.148438 363.675781 264.75 362.339844 263.746094 361.804688 Z M 232.625 328.480469 C 231.558594 327.878906 230.289062 328.28125 229.6875 329.347656 C 228.484375 331.484375 227.28125 333.621094 226.082031 335.691406 C 225.480469 336.695312 225.8125 338.03125 226.882812 338.628906 C 227.214844 338.832031 227.617188 338.898438 227.949219 338.898438 C 228.683594 338.898438 229.417969 338.496094 229.820312 337.828125 C 231.023438 335.691406 232.292969 333.554688 233.492188 331.351562 C 234.027344 330.351562 233.695312 329.015625 232.625 328.480469 Z M 241.90625 342.769531 C 239.972656 343.90625 237.96875 345.109375 236.03125 346.175781 C 235.230469 346.644531 234.894531 347.648438 235.363281 348.449219 C 235.695312 348.980469 236.230469 349.316406 236.832031 349.316406 C 237.101562 349.316406 237.367188 349.25 237.632812 349.117188 C 239.636719 347.980469 241.640625 346.84375 243.644531 345.644531 C 244.445312 345.175781 244.714844 344.105469 244.246094 343.304688 C 243.710938 342.570312 242.710938 342.304688 241.90625 342.769531 Z M 237.765625 332.621094 C 238.96875 330.484375 240.105469 328.28125 241.242188 326.074219 C 241.773438 325.007812 241.375 323.738281 240.304688 323.203125 C 239.238281 322.667969 237.96875 323.070312 237.433594 324.140625 C 236.296875 326.34375 235.164062 328.480469 234.027344 330.617188 C 233.425781 331.683594 233.828125 332.953125 234.894531 333.554688 C 235.230469 333.753906 235.5625 333.824219 235.898438 333.824219 C 236.632812 333.753906 237.367188 333.355469 237.765625 332.621094 Z M 248.855469 320.464844 C 249.386719 319.398438 248.921875 318.128906 247.851562 317.59375 C 246.785156 317.058594 245.515625 317.527344 244.980469 318.597656 C 243.910156 320.800781 242.84375 323.003906 241.707031 325.140625 C 241.171875 326.210938 241.574219 327.476562 242.644531 328.011719 C 242.976562 328.144531 243.3125 328.28125 243.644531 328.28125 C 244.445312 328.28125 245.179688 327.878906 245.582031 327.078125 C 246.648438 324.941406 247.785156 322.738281 248.855469 320.464844 Z M 251.992188 353.257812 C 250.054688 354.390625 248.050781 355.59375 246.117188 356.664062 C 245.3125 357.128906 244.980469 358.132812 245.449219 359 C 245.78125 359.535156 246.316406 359.867188 246.917969 359.867188 C 247.183594 359.867188 247.449219 359.800781 247.71875 359.667969 C 249.722656 358.53125 251.726562 357.398438 253.730469 356.195312 C 254.53125 355.726562 254.796875 354.660156 254.328125 353.859375 C 253.796875 352.988281 252.792969 352.722656 251.992188 353.257812 Z M 253.394531 335.492188 C 251.523438 336.761719 249.589844 338.03125 247.71875 339.230469 C 246.917969 339.765625 246.714844 340.769531 247.183594 341.570312 C 247.519531 342.105469 248.050781 342.371094 248.585938 342.371094 C 248.921875 342.371094 249.1875 342.304688 249.519531 342.105469 C 251.457031 340.835938 253.394531 339.566406 255.265625 338.296875 C 256.066406 337.761719 256.265625 336.695312 255.730469 335.960938 C 255.199219 335.15625 254.128906 334.957031 253.394531 335.492188 Z M 253.394531 335.492188 " fill-opacity="1" fill-rule="nonzero"/></g></svg>