<svg xmlns="http://www.w3.org/2000/svg" xmlns:xlink="http://www.w3.org/1999/xlink" width="1080" zoomAndPan="magnify" viewBox="0 0 810 809.999993" height="1080" preserveAspectRatio="xMidYMid meet" version="1.0"><defs><clipPath id="3403cd3ac6"><path d="M 483 64.5 L 745.5 64.5 L 745.5 327 L 483 327 Z M 483 64.5 " clip-rule="nonzero"/></clipPath></defs><rect x="-81" width="972" fill="#ffffff" y="-80.999999" height="971.999992" fill-opacity="1"/><rect x="-81" width="972" fill="#032721" y="-80.999999" height="971.999992" fill-opacity="1"/><path fill="#0cc0df" d="M 140.023438 743.015625 C 111.734375 727.34375 84.007812 699.390625 67.1875 670.003906 C 64.570312 665.4375 65.335938 659.691406 69.058594 655.96875 L 459.414062 265.609375 C 462.164062 262.859375 466.625 262.859375 469.371094 265.609375 L 544.378906 340.617188 C 547.128906 343.367188 547.128906 347.824219 544.378906 350.574219 L 153.902344 741.050781 C 150.230469 744.722656 144.570312 745.53125 140.023438 743.015625 " fill-opacity="1" fill-rule="nonzero"/><g clip-path="url(#3403cd3ac6)"><path fill="#0cc0df" d="M 539.996094 298.933594 L 709.824219 129.105469 L 710.390625 129.675781 C 711.339844 130.628906 712.859375 130.675781 713.863281 129.785156 L 744.339844 102.835938 C 745.410156 101.886719 745.464844 100.230469 744.453125 99.21875 L 710.769531 65.535156 C 709.753906 64.523438 708.101562 64.574219 707.152344 65.644531 L 680.203125 96.125 C 679.316406 97.125 679.359375 98.648438 680.308594 99.597656 L 680.878906 100.167969 L 511.058594 269.992188 L 483.070312 263.472656 L 546.511719 326.917969 L 539.996094 298.933594 " fill-opacity="1" fill-rule="nonzero"/></g></svg>