<svg xmlns="http://www.w3.org/2000/svg" xmlns:xlink="http://www.w3.org/1999/xlink" width="1080" zoomAndPan="magnify" viewBox="0 0 810 809.999993" height="1080" preserveAspectRatio="xMidYMid meet" version="1.0"><rect x="-81" width="972" fill="#ffffff" y="-80.999999" height="971.999992" fill-opacity="1"/><rect x="-81" width="972" fill="#032721" y="-80.999999" height="971.999992" fill-opacity="1"/><path fill="#0cc0df" d="M 520.066406 169.355469 C 520.753906 161.109375 521.441406 152.636719 522.128906 144.394531 C 522.355469 140.269531 526.019531 137.292969 529.914062 137.523438 C 534.035156 137.75 537.011719 141.414062 536.785156 145.308594 C 536.097656 153.78125 535.410156 162.253906 534.722656 170.5 C 534.265625 174.390625 531.058594 177.140625 527.394531 177.140625 C 527.167969 177.140625 526.9375 177.140625 526.707031 177.140625 C 522.585938 176.910156 519.609375 173.476562 520.066406 169.355469 Z M 537.472656 247.214844 C 538.386719 247.671875 539.304688 247.902344 540.21875 247.902344 C 542.28125 247.902344 544.339844 246.753906 545.257812 244.921875 C 548.921875 238.054688 552.585938 230.953125 556.25 223.855469 C 557.625 221.109375 556.476562 217.445312 553.730469 216.070312 C 550.980469 214.695312 547.316406 215.839844 545.945312 218.589844 C 542.507812 225.457031 538.84375 232.558594 535.179688 239.425781 C 533.578125 242.175781 534.722656 245.609375 537.472656 247.214844 Z M 497.625 146.226562 C 497.855469 146.226562 498.082031 146.226562 498.3125 146.226562 C 501.976562 146.226562 505.183594 143.246094 505.640625 139.582031 C 506.328125 131.109375 507.015625 122.636719 507.703125 114.394531 C 507.929688 110.273438 504.953125 106.835938 500.832031 106.609375 C 496.710938 106.378906 493.273438 109.355469 493.046875 113.476562 C 492.359375 121.722656 491.671875 130.195312 490.984375 138.4375 C 490.527344 142.101562 493.503906 145.765625 497.625 146.226562 Z M 558.996094 205.304688 C 559.914062 205.765625 560.601562 205.992188 561.515625 205.992188 C 563.578125 205.992188 565.636719 204.847656 566.785156 202.789062 C 570.21875 195.6875 573.425781 188.589844 576.859375 181.261719 C 578.234375 178.285156 576.859375 174.847656 573.882812 173.476562 C 570.90625 172.101562 567.46875 173.476562 566.097656 176.453125 C 562.890625 183.550781 559.683594 190.652344 556.25 197.75 C 554.875 200.496094 556.25 203.933594 558.996094 205.304688 Z M 504.496094 176.679688 C 503.578125 184.925781 502.664062 193.398438 501.746094 201.640625 C 501.289062 205.765625 504.265625 209.429688 508.160156 209.886719 C 508.386719 209.886719 508.847656 209.886719 509.074219 209.886719 C 512.738281 209.886719 515.945312 207.136719 516.402344 203.472656 C 517.320312 195.230469 518.234375 186.527344 519.152344 178.285156 C 519.609375 174.164062 516.632812 170.726562 512.511719 170.269531 C 508.386719 169.582031 504.953125 172.558594 504.496094 176.679688 Z M 523.273438 363.316406 C 524.1875 364.003906 525.335938 364.230469 526.480469 364.230469 C 528.3125 364.230469 530.144531 363.316406 531.289062 361.714844 C 535.640625 355.074219 539.992188 348.429688 544.113281 341.789062 C 545.714844 339.042969 545.027344 335.605469 542.28125 333.773438 C 539.53125 332.171875 535.867188 332.859375 534.265625 335.605469 C 530.144531 342.25 525.792969 348.660156 521.441406 355.300781 C 519.839844 357.820312 520.523438 361.484375 523.273438 363.316406 Z M 548.691406 323.699219 C 549.609375 324.15625 550.753906 324.617188 551.667969 324.617188 C 553.730469 324.617188 555.5625 323.699219 556.707031 321.867188 C 560.828125 315.226562 564.722656 308.355469 568.617188 301.488281 C 570.21875 298.738281 569.300781 295.074219 566.324219 293.472656 C 563.578125 291.867188 559.914062 292.785156 558.308594 295.761719 C 554.417969 302.632812 550.523438 309.273438 546.632812 315.914062 C 545.027344 318.433594 545.945312 322.097656 548.691406 323.699219 Z M 521.898438 285.914062 C 526.019531 279.273438 529.914062 272.402344 533.808594 265.535156 C 535.410156 262.785156 534.496094 259.121094 531.746094 257.519531 C 529 255.914062 525.335938 256.832031 523.730469 259.808594 C 519.839844 266.679688 515.945312 273.320312 512.050781 279.960938 C 510.449219 282.707031 511.367188 286.371094 514.113281 287.976562 C 515.03125 288.433594 516.175781 288.890625 517.089844 288.890625 C 518.921875 288.664062 520.984375 287.746094 521.898438 285.914062 Z M 496.023438 401.558594 C 497.167969 402.246094 498.3125 402.703125 499.457031 402.703125 C 501.289062 402.703125 502.890625 401.789062 504.039062 400.414062 C 508.617188 394.003906 513.425781 387.589844 517.777344 381.179688 C 519.609375 378.429688 518.921875 374.996094 516.402344 373.164062 C 513.882812 371.332031 510.21875 372.019531 508.386719 374.539062 C 504.039062 380.949219 499.226562 387.359375 494.648438 393.542969 C 492.816406 396.0625 493.503906 399.726562 496.023438 401.558594 Z M 479.078125 178.511719 C 479.304688 178.511719 479.761719 178.511719 479.992188 178.511719 C 483.65625 178.511719 486.863281 175.765625 487.320312 172.101562 C 488.238281 163.628906 489.152344 155.15625 490.070312 146.910156 C 490.527344 142.789062 487.550781 139.355469 483.425781 138.898438 C 479.304688 138.4375 475.871094 141.414062 475.414062 145.539062 C 474.496094 153.78125 473.582031 162.253906 472.664062 170.5 C 472.207031 174.390625 474.953125 178.054688 479.078125 178.511719 Z M 532.890625 444.382812 C 533.347656 444.609375 534.035156 444.609375 534.496094 444.609375 C 537.929688 444.609375 540.90625 442.320312 541.59375 438.886719 C 543.425781 430.640625 545.257812 422.398438 546.859375 414.152344 C 547.777344 410.261719 545.027344 406.367188 541.136719 405.453125 C 537.242188 404.535156 533.347656 407.285156 532.433594 411.175781 C 530.832031 419.421875 529 427.664062 527.167969 435.679688 C 526.480469 439.574219 529 443.464844 532.890625 444.382812 Z M 375.109375 326.449219 C 375.796875 326.675781 376.253906 326.675781 376.941406 326.675781 C 380.148438 326.675781 383.125 324.386719 384.042969 321.179688 C 386.101562 313.164062 388.164062 304.691406 389.996094 296.449219 C 390.910156 292.554688 388.394531 288.433594 384.5 287.515625 C 380.605469 286.601562 376.484375 289.121094 375.570312 293.011719 C 373.738281 301.257812 371.675781 309.273438 369.613281 317.289062 C 368.699219 321.410156 371.21875 325.53125 375.109375 326.449219 Z M 337.097656 401.558594 C 334.578125 409.574219 331.828125 417.359375 329.082031 425.375 C 327.707031 429.269531 329.769531 433.390625 333.660156 434.765625 C 334.347656 434.992188 335.265625 435.222656 335.953125 435.222656 C 338.929688 435.222656 341.90625 433.390625 342.820312 430.183594 C 345.570312 422.167969 348.316406 414.152344 350.835938 406.140625 C 351.980469 402.246094 349.921875 398.125 346.027344 396.980469 C 342.59375 395.375 338.46875 397.667969 337.097656 401.558594 Z M 382.898438 350.949219 C 380.835938 358.964844 378.546875 367.210938 376.253906 375.222656 C 375.109375 379.117188 377.402344 383.238281 381.292969 384.382812 C 381.980469 384.613281 382.667969 384.613281 383.355469 384.613281 C 386.558594 384.613281 389.539062 382.550781 390.453125 379.347656 C 392.742188 371.332031 395.035156 363.085938 397.09375 354.84375 C 398.011719 350.949219 395.71875 346.828125 391.828125 345.914062 C 387.933594 344.765625 383.8125 347.058594 382.898438 350.949219 Z M 459.839844 210.117188 C 460.296875 210.117188 460.527344 210.117188 460.984375 210.117188 C 464.648438 210.117188 467.625 207.367188 468.3125 203.703125 C 469.457031 195.460938 470.601562 186.988281 471.75 178.511719 C 472.207031 174.390625 469.457031 170.726562 465.335938 170.269531 C 461.214844 169.8125 457.550781 172.558594 457.09375 176.679688 C 455.949219 184.925781 455.03125 193.398438 453.65625 201.640625 C 452.96875 205.765625 455.71875 209.429688 459.839844 210.117188 Z M 360.226562 376.828125 C 357.9375 384.84375 355.417969 392.855469 352.898438 400.871094 C 351.753906 404.765625 353.8125 408.886719 357.707031 410.03125 C 358.394531 410.261719 359.082031 410.261719 359.996094 410.261719 C 363.203125 410.261719 365.949219 408.199219 367.09375 404.996094 C 369.613281 396.980469 372.132812 388.734375 374.421875 380.71875 C 375.570312 376.828125 373.277344 372.707031 369.386719 371.558594 C 365.492188 370.644531 361.371094 372.933594 360.226562 376.828125 Z M 352.210938 353.011719 C 352.898438 353.242188 353.585938 353.242188 354.273438 353.242188 C 357.476562 353.242188 360.453125 351.179688 361.371094 347.972656 C 363.660156 339.957031 365.949219 331.714844 368.011719 323.46875 C 369.15625 319.578125 366.636719 315.457031 362.746094 314.539062 C 358.851562 313.394531 354.730469 315.914062 353.8125 319.804688 C 351.753906 327.820312 349.460938 336.066406 347.171875 344.082031 C 346.027344 347.972656 348.316406 351.867188 352.210938 353.011719 Z M 496.710938 325.988281 C 501.058594 319.347656 505.410156 312.707031 509.535156 306.066406 C 511.367188 303.320312 510.449219 299.65625 507.703125 298.050781 C 504.953125 296.21875 501.289062 297.136719 499.6875 299.882812 C 495.5625 306.523438 491.214844 312.9375 486.863281 319.578125 C 485.03125 322.324219 485.71875 325.761719 488.464844 327.59375 C 489.382812 328.28125 490.527344 328.507812 491.671875 328.507812 C 493.730469 328.507812 495.5625 327.59375 496.710938 325.988281 Z M 397.324219 298.738281 C 397.78125 298.96875 398.46875 298.96875 398.925781 298.96875 C 402.363281 298.96875 405.339844 296.675781 406.027344 293.242188 C 407.859375 285 409.691406 276.753906 411.292969 268.511719 C 412.207031 264.617188 409.460938 260.722656 405.566406 259.808594 C 401.675781 258.890625 397.78125 261.640625 396.867188 265.535156 C 395.261719 273.777344 393.429688 282.019531 391.597656 290.035156 C 390.910156 293.929688 393.203125 297.824219 397.324219 298.738281 Z M 426.175781 296.675781 C 424.574219 304.921875 422.742188 313.164062 420.910156 321.179688 C 419.996094 325.074219 422.511719 329.195312 426.40625 329.882812 C 426.863281 330.113281 427.550781 330.113281 428.007812 330.113281 C 431.445312 330.113281 434.421875 327.820312 435.109375 324.386719 C 436.941406 316.140625 438.773438 307.898438 440.375 299.65625 C 441.292969 295.761719 438.542969 291.867188 434.652344 290.953125 C 430.988281 290.265625 427.09375 292.785156 426.175781 296.675781 Z M 439.6875 240.574219 C 440.144531 240.574219 440.605469 240.574219 440.832031 240.574219 C 444.269531 240.574219 447.472656 238.054688 448.160156 234.390625 C 449.535156 226.144531 450.910156 217.671875 452.285156 209.429688 C 452.96875 205.304688 450.222656 201.640625 446.101562 200.957031 C 441.976562 200.269531 438.316406 203.015625 437.628906 207.136719 C 436.484375 215.382812 435.109375 223.625 433.734375 231.871094 C 433.046875 236.222656 435.566406 239.886719 439.6875 240.574219 Z M 404.878906 324.386719 C 403.046875 332.628906 400.988281 340.644531 398.925781 348.660156 C 398.011719 352.554688 400.300781 356.675781 404.195312 357.589844 C 404.878906 357.820312 405.339844 357.820312 406.027344 357.820312 C 409.230469 357.820312 412.207031 355.53125 413.125 352.324219 C 415.183594 344.308594 417.246094 335.835938 419.078125 327.59375 C 419.996094 323.699219 417.476562 319.578125 413.582031 318.660156 C 409.691406 317.972656 405.796875 320.492188 404.878906 324.386719 Z M 418.847656 270.113281 C 419.308594 270.113281 419.765625 270.34375 420.222656 270.34375 C 423.660156 270.34375 426.636719 267.824219 427.324219 264.386719 C 428.925781 256.144531 430.527344 247.671875 432.132812 239.425781 C 432.820312 235.535156 430.070312 231.640625 426.175781 230.953125 C 422.285156 230.265625 418.390625 233.015625 417.703125 236.910156 C 416.332031 245.152344 414.726562 253.394531 413.125 261.640625 C 412.207031 265.535156 414.726562 269.425781 418.847656 270.113281 Z M 443.808594 515.828125 C 441.292969 523.84375 438.542969 531.859375 435.796875 539.644531 C 434.421875 543.539062 436.484375 547.660156 440.375 549.035156 C 441.0625 549.265625 441.976562 549.492188 442.664062 549.492188 C 445.640625 549.492188 448.621094 547.660156 449.535156 544.453125 C 452.285156 536.441406 455.03125 528.425781 457.550781 520.410156 C 458.695312 516.515625 456.632812 512.394531 452.742188 511.25 C 449.078125 509.648438 444.957031 511.9375 443.808594 515.828125 Z M 470.601562 440.03125 C 472.207031 440.03125 474.039062 439.34375 475.183594 437.96875 C 480.222656 432.015625 485.03125 425.605469 490.070312 419.421875 C 492.128906 416.902344 491.671875 413.238281 489.152344 411.175781 C 486.632812 409.117188 482.96875 409.574219 480.910156 412.09375 C 476.097656 418.277344 471.289062 424.460938 466.253906 430.414062 C 464.191406 432.933594 464.648438 436.597656 467.167969 438.65625 C 467.855469 439.574219 469.230469 440.03125 470.601562 440.03125 Z M 365.035156 616.820312 C 365.949219 617.277344 367.09375 617.507812 368.011719 617.507812 C 370.757812 617.507812 373.507812 615.902344 374.652344 613.15625 C 378.085938 605.367188 381.523438 597.582031 384.730469 589.796875 C 386.332031 586.132812 384.5 581.78125 380.835938 580.179688 C 377.171875 578.574219 372.820312 580.40625 371.21875 584.070312 C 368.011719 591.628906 364.804688 599.414062 361.371094 607.199219 C 359.769531 610.863281 361.371094 615.214844 365.035156 616.820312 Z M 359.769531 547.890625 C 357.707031 545.371094 354.042969 545.140625 351.523438 547.203125 C 345.570312 552.242188 339.617188 557.277344 333.433594 562.089844 C 330.914062 564.148438 330.457031 567.8125 332.515625 570.332031 C 333.660156 571.707031 335.265625 572.394531 337.097656 572.394531 C 338.46875 572.394531 339.617188 571.933594 340.761719 571.019531 C 346.945312 566.210938 352.898438 560.941406 359.082031 555.90625 C 361.597656 554.074219 361.828125 550.410156 359.769531 547.890625 Z M 328.625 378.660156 C 329.3125 378.886719 329.996094 378.886719 330.914062 378.886719 C 334.121094 378.886719 336.867188 376.828125 338.011719 373.621094 C 340.53125 365.605469 343.050781 357.363281 345.339844 349.347656 C 346.484375 345.453125 344.195312 341.332031 340.300781 340.1875 C 336.410156 339.042969 332.289062 341.332031 331.144531 345.226562 C 328.851562 353.242188 326.332031 361.253906 323.816406 369.269531 C 322.667969 373.390625 324.960938 377.515625 328.625 378.660156 Z M 355.875 601.019531 C 352.210938 599.414062 347.859375 601.019531 346.257812 604.683594 C 342.820312 612.238281 339.386719 620.023438 335.722656 627.351562 C 333.890625 631.015625 335.492188 635.367188 339.15625 637.199219 C 340.074219 637.65625 341.21875 637.886719 342.363281 637.886719 C 345.113281 637.886719 347.859375 636.285156 349.003906 633.765625 C 352.667969 626.207031 356.105469 618.421875 359.539062 610.636719 C 361.140625 607.199219 359.539062 602.851562 355.875 601.019531 Z M 338.46875 506.210938 C 339.84375 506.210938 341.21875 505.753906 342.363281 504.609375 C 348.089844 499.34375 354.042969 494.074219 359.769531 488.578125 C 362.058594 486.289062 362.285156 482.625 359.996094 480.335938 C 357.707031 478.046875 354.042969 477.816406 351.753906 480.105469 C 346.027344 485.375 340.300781 490.867188 334.578125 495.90625 C 332.289062 497.96875 332.058594 501.632812 334.121094 504.152344 C 335.265625 505.753906 336.867188 506.210938 338.46875 506.210938 Z M 459.152344 447.816406 C 456.632812 445.757812 452.96875 445.984375 450.910156 448.503906 C 445.871094 454.457031 440.605469 460.183594 435.335938 466.136719 C 433.277344 468.425781 433.277344 472.089844 435.796875 474.382812 C 436.941406 475.296875 438.316406 475.984375 439.6875 475.984375 C 441.292969 475.984375 442.894531 475.296875 444.039062 474.152344 C 449.304688 468.425781 454.574219 462.472656 459.839844 456.519531 C 461.902344 453.542969 461.671875 449.878906 459.152344 447.816406 Z M 633.421875 291.640625 C 633.652344 291.640625 633.878906 291.640625 634.109375 291.640625 C 637.773438 291.640625 640.980469 288.664062 641.4375 285 C 642.125 276.753906 642.8125 268.050781 643.5 259.808594 C 643.726562 255.6875 640.75 252.25 636.628906 252.023438 C 632.507812 251.792969 629.070312 254.769531 628.84375 258.890625 C 628.15625 267.136719 627.46875 275.609375 626.78125 283.851562 C 626.324219 287.746094 629.300781 291.179688 633.421875 291.640625 Z M 592.660156 322.324219 C 591.746094 330.570312 590.597656 339.042969 589.226562 347.285156 C 588.539062 351.410156 591.515625 355.074219 595.410156 355.53125 C 595.867188 355.53125 596.09375 355.53125 596.554688 355.53125 C 600.21875 355.53125 603.195312 352.78125 603.882812 349.117188 C 605.027344 340.875 606.171875 332.402344 607.316406 323.929688 C 607.773438 319.804688 605.027344 316.140625 600.902344 315.683594 C 596.78125 315.457031 593.117188 318.433594 592.660156 322.324219 Z M 651.054688 258.207031 C 651.285156 258.207031 651.285156 258.207031 651.511719 258.207031 C 655.40625 258.207031 658.613281 255.226562 658.839844 251.335938 C 659.300781 242.863281 659.757812 234.390625 660.214844 225.917969 C 660.445312 221.792969 657.238281 218.359375 653.117188 218.128906 C 648.996094 217.902344 645.558594 221.109375 645.332031 225.230469 C 644.871094 233.472656 644.414062 241.945312 643.957031 250.191406 C 643.957031 254.542969 646.933594 257.976562 651.054688 258.207031 Z M 593.804688 241.03125 C 594.722656 241.488281 595.410156 241.488281 596.324219 241.488281 C 598.386719 241.488281 600.675781 240.34375 601.589844 238.28125 C 605.027344 231.183594 608.230469 224.085938 611.667969 216.757812 C 613.042969 213.78125 611.667969 210.34375 608.691406 208.96875 C 605.714844 207.597656 602.277344 208.96875 600.902344 211.949219 C 597.699219 219.046875 594.261719 226.144531 591.058594 233.246094 C 589.683594 236.222656 590.828125 239.65625 593.804688 241.03125 Z M 608.460938 315.914062 C 608.003906 320.035156 610.980469 323.699219 614.875 324.15625 C 615.101562 324.15625 615.558594 324.15625 615.789062 324.15625 C 619.453125 324.15625 622.660156 321.410156 623.117188 317.746094 C 624.03125 309.273438 624.949219 300.800781 625.863281 292.554688 C 626.324219 288.433594 623.347656 285 619.222656 284.539062 C 615.101562 284.082031 611.667969 287.058594 611.210938 291.179688 C 610.292969 299.195312 609.378906 307.667969 608.460938 315.914062 Z M 572.050781 282.9375 C 572.964844 283.394531 573.882812 283.625 574.796875 283.625 C 576.859375 283.625 578.921875 282.480469 579.835938 280.648438 C 583.5 273.777344 587.164062 266.679688 590.828125 259.578125 C 592.203125 256.832031 591.058594 253.167969 588.308594 251.792969 C 585.332031 250.417969 581.898438 251.566406 580.523438 254.3125 C 577.089844 261.183594 573.425781 268.28125 569.761719 275.152344 C 568.15625 277.898438 569.300781 281.335938 572.050781 282.9375 Z M 464.878906 366.980469 C 466.710938 366.980469 468.3125 366.0625 469.457031 364.691406 C 474.039062 358.277344 478.847656 351.867188 483.199219 345.453125 C 485.03125 342.933594 484.34375 339.269531 481.824219 337.4375 C 479.078125 335.605469 475.640625 336.292969 473.808594 338.8125 C 469.457031 345.226562 464.648438 351.636719 460.070312 357.820312 C 458.238281 360.339844 458.695312 364.003906 461.214844 365.835938 C 462.359375 366.75 463.734375 366.980469 464.878906 366.980469 Z M 449.304688 301.488281 C 452.742188 301.488281 455.71875 298.96875 456.40625 295.53125 C 458.007812 287.289062 459.613281 278.816406 461.214844 270.570312 C 461.902344 266.679688 459.152344 262.785156 455.261719 262.097656 C 451.367188 261.410156 447.472656 264.160156 446.789062 268.050781 C 445.414062 276.296875 443.808594 284.539062 442.207031 292.785156 C 441.519531 296.675781 444.039062 300.570312 447.933594 301.488281 C 448.390625 301.488281 448.847656 301.488281 449.304688 301.488281 Z M 432.359375 402.933594 C 433.503906 403.847656 434.652344 404.308594 436.023438 404.308594 C 437.628906 404.308594 439.460938 403.621094 440.605469 402.246094 C 445.640625 396.0625 450.453125 389.878906 455.488281 383.699219 C 457.550781 381.179688 457.09375 377.515625 454.574219 375.453125 C 452.054688 373.390625 448.390625 373.851562 446.328125 376.371094 C 441.519531 382.550781 436.710938 388.734375 431.671875 394.6875 C 429.382812 397.207031 429.839844 400.871094 432.359375 402.933594 Z M 488.921875 241.257812 C 489.382812 241.257812 489.609375 241.257812 490.070312 241.257812 C 493.734375 241.257812 496.710938 238.511719 497.394531 234.847656 C 498.542969 226.605469 499.6875 218.128906 500.832031 209.65625 C 501.289062 205.535156 498.542969 201.871094 494.417969 201.414062 C 490.296875 200.957031 486.632812 203.703125 486.175781 207.824219 C 485.257812 216.070312 484.113281 224.542969 482.742188 232.785156 C 482.054688 236.910156 484.800781 240.800781 488.921875 241.257812 Z M 470.144531 271.945312 C 473.582031 271.945312 476.785156 269.425781 477.472656 265.761719 C 478.847656 257.519531 480.222656 249.046875 481.59375 240.800781 C 482.28125 236.679688 479.535156 233.015625 475.414062 232.328125 C 471.289062 231.640625 467.625 234.390625 466.941406 238.511719 C 465.792969 246.753906 464.421875 255 463.046875 263.242188 C 462.359375 267.136719 465.109375 271.03125 469 271.714844 C 469.230469 271.945312 469.6875 271.945312 470.144531 271.945312 Z M 409.460938 437.96875 C 414.726562 432.246094 419.996094 426.292969 425.261719 420.335938 C 427.324219 417.816406 427.09375 414.152344 424.574219 412.09375 C 422.054688 410.03125 418.390625 410.261719 416.332031 412.78125 C 411.292969 418.734375 406.027344 424.460938 400.757812 430.414062 C 398.699219 432.703125 398.699219 436.367188 401.214844 438.65625 C 402.363281 439.574219 403.734375 440.261719 405.109375 440.261719 C 406.710938 439.800781 408.316406 439.34375 409.460938 437.96875 Z M 390.683594 595.0625 C 391.597656 595.523438 392.515625 595.523438 393.429688 595.523438 C 396.40625 595.523438 399.15625 593.691406 400.300781 590.941406 C 403.507812 583.15625 406.710938 575.140625 409.691406 567.355469 C 411.0625 563.460938 409.230469 559.339844 405.339844 557.964844 C 401.445312 556.59375 397.324219 558.425781 395.949219 562.316406 C 392.972656 570.101562 389.765625 577.890625 386.789062 585.675781 C 385.1875 589.339844 387.019531 593.691406 390.683594 595.0625 Z M 372.820312 473.921875 C 374.421875 473.921875 375.796875 473.464844 376.941406 472.320312 C 382.4375 466.824219 388.164062 461.097656 393.429688 455.375 C 395.71875 453.085938 395.492188 449.421875 393.203125 447.128906 C 390.910156 444.839844 387.246094 445.070312 384.957031 447.359375 C 379.691406 453.085938 374.195312 458.582031 368.699219 464.078125 C 366.410156 466.367188 366.410156 470.03125 368.699219 472.320312 C 369.84375 473.464844 371.21875 473.921875 372.820312 473.921875 Z M 394.574219 516.289062 C 392.285156 514 388.621094 513.769531 386.332031 516.058594 C 380.605469 521.324219 374.882812 526.820312 369.15625 531.859375 C 366.867188 533.921875 366.636719 537.585938 368.699219 540.105469 C 369.84375 541.476562 371.445312 541.9375 373.050781 541.9375 C 374.421875 541.9375 375.796875 541.476562 376.941406 540.5625 C 382.667969 535.296875 388.621094 530.027344 394.347656 524.53125 C 396.867188 522.242188 396.867188 518.578125 394.574219 516.289062 Z M 415.871094 572.621094 C 416.789062 572.851562 417.703125 573.078125 418.390625 573.078125 C 421.367188 573.078125 424.117188 571.246094 425.261719 568.269531 C 428.238281 560.484375 431.214844 552.46875 433.964844 544.453125 C 435.335938 540.5625 433.277344 536.441406 429.382812 535.066406 C 425.492188 533.691406 421.367188 535.753906 419.996094 539.644531 C 417.246094 547.433594 414.269531 555.445312 411.523438 563.234375 C 410.148438 566.898438 411.980469 571.019531 415.871094 572.621094 Z M 428.007812 491.097656 C 430.300781 488.808594 430.070312 485.144531 427.78125 482.855469 C 425.492188 480.5625 421.828125 480.792969 419.535156 483.082031 C 414.269531 488.808594 408.773438 494.304688 403.277344 499.800781 C 400.988281 502.089844 400.988281 505.753906 403.277344 508.042969 C 404.421875 509.1875 405.796875 509.648438 407.398438 509.648438 C 408.773438 509.648438 410.375 509.1875 411.523438 508.042969 C 417.015625 502.546875 422.511719 496.824219 428.007812 491.097656 Z M 280.535156 540.792969 C 274.351562 545.601562 267.9375 550.179688 261.753906 554.761719 C 259.238281 556.59375 258.550781 560.257812 260.382812 562.773438 C 261.527344 564.378906 263.359375 565.292969 265.191406 565.292969 C 266.335938 565.292969 267.480469 564.835938 268.625 564.148438 C 275.039062 559.570312 281.449219 554.761719 287.632812 549.949219 C 290.152344 547.890625 290.609375 544.457031 288.777344 541.707031 C 286.714844 539.417969 283.050781 538.960938 280.535156 540.792969 Z M 458.695312 566.210938 C 454.800781 564.835938 450.679688 566.898438 449.304688 570.789062 C 446.558594 578.804688 443.582031 586.589844 440.832031 594.378906 C 439.460938 598.269531 441.292969 602.390625 445.183594 603.765625 C 446.101562 603.996094 447.015625 604.222656 447.703125 604.222656 C 450.679688 604.222656 453.429688 602.390625 454.574219 599.414062 C 457.550781 591.628906 460.527344 583.613281 463.277344 575.597656 C 464.421875 571.707031 462.359375 567.585938 458.695312 566.210938 Z M 482.28125 542.164062 C 478.390625 541.019531 474.265625 543.082031 473.121094 546.972656 C 470.601562 554.761719 467.855469 562.773438 465.105469 570.789062 C 463.734375 574.683594 465.792969 578.804688 469.6875 580.179688 C 470.375 580.40625 471.289062 580.636719 471.976562 580.636719 C 474.953125 580.636719 477.929688 578.804688 478.847656 575.597656 C 481.59375 567.585938 484.34375 559.570312 486.863281 551.554688 C 488.238281 547.660156 485.945312 543.539062 482.28125 542.164062 Z M 519.839844 466.59375 C 521.898438 458.582031 523.960938 450.105469 525.792969 441.863281 C 526.707031 437.96875 524.1875 433.847656 520.296875 432.933594 C 516.402344 432.015625 512.28125 434.535156 511.367188 438.429688 C 509.535156 446.671875 507.472656 454.6875 505.410156 462.703125 C 504.496094 466.59375 506.785156 470.71875 510.679688 471.632812 C 511.367188 471.863281 511.824219 471.863281 512.511719 471.863281 C 515.945312 472.089844 518.921875 470.03125 519.839844 466.59375 Z M 496.9375 493.617188 C 499.226562 485.601562 501.519531 477.359375 503.578125 469.113281 C 504.722656 465.222656 502.207031 461.097656 498.3125 460.183594 C 494.417969 459.039062 490.296875 461.558594 489.382812 465.449219 C 487.320312 473.464844 485.03125 481.710938 482.742188 489.722656 C 481.59375 493.617188 483.886719 497.738281 487.777344 498.882812 C 488.464844 499.113281 489.152344 499.113281 489.839844 499.113281 C 493.046875 498.882812 496.023438 496.824219 496.9375 493.617188 Z M 505.183594 517.203125 C 501.289062 516.058594 497.167969 518.347656 496.023438 522.242188 C 493.730469 530.257812 491.214844 538.273438 488.695312 546.285156 C 487.550781 550.179688 489.609375 554.300781 493.503906 555.445312 C 494.191406 555.675781 494.878906 555.675781 495.792969 555.675781 C 499 555.675781 501.746094 553.613281 502.890625 550.410156 C 505.410156 542.394531 507.929688 534.148438 510.21875 526.136719 C 511.367188 522.472656 509.074219 518.347656 505.183594 517.203125 Z M 473.808594 519.492188 C 476.328125 511.480469 478.847656 503.234375 481.136719 495.21875 C 482.28125 491.328125 479.992188 487.207031 476.097656 486.058594 C 472.207031 484.914062 468.085938 487.207031 466.9375 491.097656 C 464.648438 499.113281 462.128906 507.128906 459.613281 515.144531 C 458.464844 519.035156 460.527344 523.15625 464.421875 524.304688 C 465.109375 524.53125 465.792969 524.53125 466.710938 524.53125 C 469.917969 524.53125 472.664062 522.472656 473.808594 519.492188 Z M 333.433594 671.550781 C 329.769531 669.71875 325.417969 671.09375 323.585938 674.753906 C 319.691406 682.082031 315.800781 689.640625 311.90625 696.96875 C 309.84375 700.632812 311.21875 704.984375 314.882812 707.042969 C 316.027344 707.730469 317.171875 707.960938 318.320312 707.960938 C 320.835938 707.960938 323.355469 706.585938 324.730469 704.066406 C 328.851562 696.738281 332.746094 689.183594 336.636719 681.625 C 338.46875 677.734375 337.097656 673.382812 333.433594 671.550781 Z M 359.539062 652.542969 C 355.875 650.710938 351.523438 652.3125 349.691406 655.976562 C 346.027344 663.535156 342.363281 671.09375 338.46875 678.417969 C 336.636719 682.082031 338.011719 686.433594 341.675781 688.265625 C 342.820312 688.726562 343.964844 689.183594 345.113281 689.183594 C 347.859375 689.183594 350.378906 687.808594 351.753906 685.0625 C 355.644531 677.503906 359.308594 669.945312 362.972656 662.390625 C 364.578125 658.496094 363.203125 654.144531 359.539062 652.542969 Z M 434.421875 589.339844 C 430.527344 587.964844 426.40625 589.796875 425.03125 593.691406 C 422.054688 601.476562 419.078125 609.261719 415.871094 617.046875 C 414.269531 620.710938 416.101562 625.0625 419.996094 626.664062 C 420.910156 627.125 421.828125 627.125 422.742188 627.125 C 425.71875 627.125 428.46875 625.292969 429.613281 622.542969 C 432.820312 614.757812 436.023438 606.742188 439 598.957031 C 440.144531 594.835938 438.316406 590.714844 434.421875 589.339844 Z M 384.957031 632.390625 C 381.292969 630.789062 376.941406 632.390625 375.339844 636.054688 C 371.90625 643.613281 368.46875 651.398438 364.804688 658.726562 C 362.972656 662.390625 364.578125 666.742188 368.242188 668.574219 C 369.15625 669.03125 370.300781 669.261719 371.445312 669.261719 C 374.195312 669.261719 376.941406 667.65625 378.085938 665.136719 C 381.75 657.582031 385.1875 649.792969 388.621094 642.007812 C 390.222656 638.34375 388.621094 633.992188 384.957031 632.390625 Z M 315.800781 657.808594 C 318.546875 657.808594 321.066406 656.4375 322.441406 653.6875 C 326.332031 646.132812 329.996094 638.574219 333.660156 631.015625 C 335.492188 627.351562 333.890625 623.003906 330.226562 621.171875 C 326.5625 619.339844 322.210938 620.941406 320.378906 624.605469 C 316.714844 632.160156 313.050781 639.71875 309.160156 647.046875 C 307.328125 650.710938 308.699219 655.0625 312.363281 656.894531 C 313.738281 657.582031 314.882812 657.808594 315.800781 657.808594 Z M 409.917969 611.324219 C 406.253906 609.71875 401.902344 611.550781 400.300781 615.214844 C 397.09375 623 393.886719 630.789062 390.453125 638.34375 C 388.851562 642.007812 390.453125 646.359375 394.117188 647.960938 C 395.035156 648.421875 396.179688 648.648438 397.09375 648.648438 C 399.84375 648.648438 402.589844 647.046875 403.734375 644.300781 C 407.171875 636.511719 410.375 628.726562 413.8125 620.941406 C 415.414062 617.046875 413.8125 612.925781 409.917969 611.324219 Z M 313.507812 425.144531 C 310.761719 432.933594 307.785156 440.945312 305.035156 448.734375 C 303.664062 452.625 305.496094 456.75 309.386719 458.121094 C 310.304688 458.351562 311.21875 458.582031 311.90625 458.582031 C 314.882812 458.582031 317.632812 456.75 318.777344 453.769531 C 321.753906 445.984375 324.730469 437.742188 327.480469 429.957031 C 328.851562 426.0625 326.792969 421.941406 322.898438 420.566406 C 319.003906 419.421875 314.882812 421.480469 313.507812 425.144531 Z M 610.980469 377.972656 C 606.859375 377.285156 603.195312 380.035156 602.507812 384.15625 C 601.363281 392.398438 599.988281 400.644531 598.613281 408.886719 C 597.925781 412.78125 600.675781 416.671875 604.566406 417.359375 C 605.027344 417.359375 605.484375 417.359375 605.714844 417.359375 C 609.148438 417.359375 612.355469 414.839844 613.042969 411.175781 C 614.414062 402.933594 615.789062 394.460938 617.164062 386.214844 C 617.621094 382.324219 614.875 378.429688 610.980469 377.972656 Z M 648.308594 315.683594 C 644.183594 315.226562 640.75 318.203125 640.292969 322.324219 C 639.375 330.570312 638.460938 339.042969 637.542969 347.285156 C 637.085938 351.410156 640.0625 355.074219 643.957031 355.53125 C 644.183594 355.53125 644.644531 355.53125 644.871094 355.53125 C 648.535156 355.53125 651.742188 352.78125 652.199219 349.117188 C 653.117188 340.875 654.03125 332.402344 654.949219 323.929688 C 655.175781 319.578125 652.199219 315.914062 648.308594 315.683594 Z M 665.710938 282.9375 C 661.589844 282.707031 658.152344 285.683594 657.925781 289.808594 C 657.238281 298.050781 656.550781 306.523438 655.863281 314.769531 C 655.40625 318.890625 658.382812 322.324219 662.503906 322.785156 C 662.734375 322.785156 662.964844 322.785156 663.191406 322.785156 C 666.855469 322.785156 670.0625 319.804688 670.519531 316.140625 C 671.207031 307.667969 671.894531 299.195312 672.582031 290.953125 C 672.808594 286.832031 669.832031 283.394531 665.710938 282.9375 Z M 624.035156 656.664062 C 560.140625 716.203125 477.929688 748.722656 390.910156 748.722656 C 386.789062 748.722656 382.898438 748.722656 378.773438 748.492188 C 343.28125 747.347656 308.699219 740.707031 275.953125 729.027344 C 271.144531 727.425781 266.566406 725.59375 261.984375 723.761719 C 252.597656 719.867188 243.207031 715.746094 234.046875 710.9375 C 232.214844 710.023438 230.613281 709.105469 228.78125 708.191406 C 227.40625 707.503906 225.804688 706.585938 224.429688 705.671875 C 220.078125 703.378906 215.957031 700.863281 211.832031 698.113281 C 199.238281 690.328125 187.332031 681.855469 175.882812 672.695312 C 175.421875 672.464844 175.195312 672.007812 174.734375 671.777344 C 162.828125 661.933594 151.378906 651.398438 140.84375 639.949219 C 129.851562 628.269531 120.003906 615.902344 110.84375 603.078125 C 107.867188 598.726562 104.890625 594.378906 101.914062 589.796875 C 96.417969 581.324219 91.609375 572.621094 87.027344 563.691406 C 84.28125 558.652344 81.761719 553.386719 79.472656 548.117188 C 57.71875 500.488281 47.410156 448.273438 49.242188 394.6875 C 52.449219 303.320312 90.921875 218.816406 157.789062 156.300781 C 224.199219 93.785156 311.21875 61.265625 402.589844 64.472656 C 439.6875 65.847656 475.640625 72.945312 509.535156 85.3125 C 514.34375 87.144531 519.152344 88.976562 523.960938 91.035156 C 534.722656 95.617188 545.027344 100.652344 555.332031 106.148438 C 557.394531 107.292969 559.457031 108.441406 561.289062 109.585938 C 590.371094 126.300781 617.164062 147.597656 640.75 172.789062 C 648.078125 180.574219 654.949219 188.589844 661.359375 196.832031 C 666.398438 203.246094 670.976562 209.65625 675.558594 216.296875 C 680.824219 224.085938 685.632812 232.328125 690.214844 240.34375 C 692.734375 245.152344 695.253906 249.734375 697.769531 254.769531 C 762.578125 386.902344 736.929688 551.324219 624.035156 656.664062 Z M 689.070312 264.160156 C 688.839844 270.34375 688.382812 276.527344 687.925781 282.707031 C 687.695312 286.601562 684.488281 289.578125 680.597656 289.578125 C 680.367188 289.578125 680.367188 289.578125 680.136719 289.578125 C 676.015625 289.347656 673.039062 285.914062 673.269531 281.792969 C 673.726562 273.546875 674.183594 265.074219 674.640625 256.832031 C 674.871094 252.9375 677.847656 249.960938 681.742188 249.960938 C 676.933594 241.03125 671.894531 232.558594 666.167969 224.085938 C 662.964844 223.167969 660.671875 220.191406 660.902344 216.757812 C 660.902344 216.527344 660.902344 216.527344 660.902344 216.296875 C 652.429688 204.160156 642.8125 192.484375 632.507812 181.261719 C 631.132812 179.886719 629.988281 178.511719 628.613281 177.140625 C 628.382812 177.597656 628.15625 178.285156 627.925781 178.742188 C 625.636719 184.238281 623.347656 189.964844 621.054688 195.230469 C 620.140625 197.519531 617.851562 198.664062 615.789062 198.664062 C 615.101562 198.664062 614.1875 198.4375 613.5 198.207031 C 610.523438 196.832031 609.148438 193.628906 610.523438 190.652344 C 613.5 183.78125 616.476562 176.679688 619.222656 169.582031 C 619.222656 169.355469 619.453125 169.125 619.453125 168.894531 C 619.683594 168.667969 619.683594 168.207031 619.910156 167.980469 C 611.210938 159.734375 602.277344 151.71875 592.660156 144.394531 C 592.429688 144.851562 592.203125 145.539062 591.972656 145.996094 C 590.140625 150.347656 588.308594 154.925781 586.476562 159.277344 C 585.5625 161.566406 583.5 162.710938 581.210938 162.710938 C 580.523438 162.710938 579.605469 162.484375 578.921875 162.253906 C 575.941406 160.878906 574.570312 157.675781 575.941406 154.699219 C 578.234375 149.429688 580.292969 144.164062 582.585938 138.667969 C 582.8125 138.210938 583.042969 137.523438 583.269531 137.066406 C 573.652344 130.195312 563.804688 124.011719 553.730469 118.058594 C 553.5 124.242188 553.042969 130.421875 552.585938 136.835938 C 552.355469 140.730469 549.152344 143.707031 545.257812 143.707031 C 545.027344 143.707031 545.027344 143.707031 544.800781 143.707031 C 540.675781 143.476562 537.699219 140.042969 537.929688 135.917969 C 538.386719 127.675781 538.84375 119.203125 539.304688 110.957031 C 539.304688 110.957031 539.304688 110.730469 539.304688 110.730469 C 534.035156 108.210938 529 105.691406 523.503906 103.402344 C 523.503906 104.316406 523.503906 105.003906 523.273438 105.921875 C 523.042969 109.8125 519.839844 112.789062 515.945312 112.789062 C 515.714844 112.789062 515.714844 112.789062 515.488281 112.789062 C 511.367188 112.5625 508.386719 109.125 508.617188 105.003906 C 508.847656 102.484375 508.847656 99.964844 509.074219 97.675781 C 475.414062 84.851562 439.460938 77.523438 402.363281 76.152344 C 398.46875 75.921875 394.574219 75.921875 390.683594 75.921875 C 306.640625 75.921875 227.175781 107.292969 165.574219 164.773438 C 101 225 63.671875 306.753906 60.695312 394.917969 C 58.863281 450.105469 70.3125 503.921875 94.128906 552.242188 C 98.25 545.828125 102.144531 539.1875 106.035156 532.777344 C 108.097656 529.339844 112.675781 528.195312 116.113281 530.257812 C 119.546875 532.316406 120.691406 536.898438 118.632812 540.332031 C 114.28125 547.660156 109.929688 554.988281 105.347656 562.089844 C 104.203125 563.691406 102.601562 564.835938 100.769531 565.292969 C 103.289062 569.875 106.035156 574.453125 108.785156 579.035156 C 109.242188 578.574219 109.472656 578.117188 110.15625 577.890625 C 112.449219 576.285156 115.652344 576.058594 118.402344 577.660156 C 121.835938 579.722656 122.980469 584.300781 120.691406 587.734375 C 120.003906 588.882812 119.316406 589.796875 118.632812 590.941406 C 118.402344 591.398438 117.945312 591.859375 117.714844 592.542969 C 125.730469 604.222656 134.433594 615.445312 143.820312 625.980469 C 144.277344 625.75 144.738281 625.519531 145.425781 625.292969 C 151.148438 622.316406 157.101562 619.566406 162.828125 616.359375 C 165.574219 614.988281 169.238281 615.902344 170.613281 618.878906 C 172.21875 621.628906 171.070312 625.292969 168.09375 626.664062 C 163.285156 629.183594 158.476562 631.703125 153.4375 634.222656 C 152.980469 634.453125 152.292969 634.679688 151.835938 634.910156 C 160.765625 644.300781 169.925781 653 179.773438 661.015625 C 180.230469 660.785156 180.917969 660.558594 181.378906 660.101562 C 186.644531 657.582031 191.910156 654.832031 197.179688 652.085938 C 199.925781 650.480469 203.589844 651.625 204.964844 654.605469 C 206.566406 657.351562 205.421875 661.015625 202.445312 662.390625 C 198.78125 664.222656 194.886719 666.28125 191.222656 668.113281 C 190.765625 668.34375 190.078125 668.574219 189.621094 669.03125 C 199.925781 677.046875 210.6875 684.375 221.910156 691.015625 C 222.824219 691.242188 223.742188 691.472656 224.65625 691.929688 C 225.34375 692.390625 226.03125 692.847656 226.488281 693.535156 C 227.863281 694.449219 229.46875 695.136719 230.839844 696.054688 C 234.503906 690.328125 237.941406 684.375 241.605469 678.417969 C 243.664062 674.984375 248.246094 673.839844 251.679688 675.902344 C 255.113281 677.960938 256.261719 682.542969 254.199219 685.976562 C 250.765625 691.703125 247.328125 697.425781 243.894531 703.152344 C 251.910156 707.042969 259.925781 710.707031 268.167969 713.914062 C 269.082031 712.539062 269.769531 711.167969 270.6875 709.792969 C 272.746094 706.359375 277.328125 705.210938 280.761719 707.273438 C 284.199219 709.335938 285.34375 713.914062 283.28125 717.351562 C 282.824219 718.035156 282.59375 718.496094 282.136719 719.183594 C 282.824219 719.410156 283.511719 719.640625 283.96875 719.867188 C 283.738281 718.265625 283.96875 716.433594 284.886719 714.832031 C 289.007812 707.730469 293.128906 700.402344 297.25 693.074219 C 299.3125 689.410156 303.664062 688.265625 307.328125 690.097656 C 310.992188 692.160156 312.136719 696.511719 310.304688 700.175781 C 306.183594 707.503906 302.058594 715.058594 297.707031 722.386719 C 297.480469 723.074219 297.023438 723.53125 296.5625 723.992188 C 323.128906 731.777344 350.835938 736.355469 379.460938 737.5 C 467.625 740.707031 551.898438 709.105469 616.476562 648.878906 C 724.105469 547.433594 749.296875 390.796875 689.070312 264.160156 Z M 570.675781 436.597656 C 566.785156 435.679688 562.890625 438.429688 561.972656 442.320312 C 560.371094 450.566406 558.539062 458.808594 556.707031 466.824219 C 555.792969 470.71875 558.308594 474.839844 562.203125 475.527344 C 562.660156 475.753906 563.347656 475.753906 563.804688 475.753906 C 567.242188 475.753906 570.21875 473.464844 570.90625 470.03125 C 572.738281 461.785156 574.570312 453.542969 576.171875 445.296875 C 577.089844 441.175781 574.570312 437.28125 570.675781 436.597656 Z M 591.058594 407.742188 C 587.164062 407.054688 583.269531 409.804688 582.585938 413.695312 C 581.210938 421.941406 579.605469 430.183594 578.003906 438.429688 C 577.316406 442.320312 579.835938 446.214844 583.730469 447.128906 C 584.1875 447.128906 584.644531 447.359375 585.101562 447.359375 C 588.539062 447.359375 591.515625 444.839844 592.203125 441.40625 C 593.804688 433.160156 595.410156 424.6875 597.011719 416.445312 C 597.699219 412.320312 595.179688 408.429688 591.058594 407.742188 Z M 549.378906 464.304688 C 545.484375 463.390625 541.363281 465.90625 540.449219 469.800781 C 538.617188 477.816406 536.554688 486.058594 534.496094 494.074219 C 533.578125 497.96875 535.867188 502.089844 539.761719 503.007812 C 540.449219 503.234375 540.90625 503.234375 541.59375 503.234375 C 544.800781 503.234375 547.777344 500.945312 548.691406 497.738281 C 550.753906 489.496094 552.8125 481.25 554.644531 473.007812 C 555.792969 469.34375 553.5 465.222656 549.378906 464.304688 Z M 563.121094 410.03125 C 564.722656 401.789062 566.324219 393.316406 567.929688 385.070312 C 568.617188 381.179688 565.867188 377.285156 561.972656 376.597656 C 558.082031 375.910156 554.1875 378.660156 553.5 382.550781 C 552.128906 390.796875 550.523438 399.039062 548.921875 407.285156 C 548.234375 411.175781 550.753906 415.070312 554.644531 415.984375 C 555.105469 415.984375 555.5625 416.214844 556.019531 416.214844 C 559.457031 415.757812 562.433594 413.46875 563.121094 410.03125 Z M 583.957031 380.035156 C 585.332031 371.789062 586.707031 363.316406 588.082031 355.074219 C 588.765625 350.949219 586.019531 347.285156 581.898438 346.597656 C 577.773438 345.914062 574.109375 348.660156 573.425781 352.78125 C 572.28125 361.027344 570.90625 369.269531 569.53125 377.515625 C 568.84375 381.40625 571.59375 385.300781 575.484375 385.988281 C 575.941406 385.988281 576.402344 385.988281 576.628906 385.988281 C 580.066406 386.214844 583.269531 383.699219 583.957031 380.035156 Z M 527.625 491.328125 C 523.730469 490.183594 519.609375 492.699219 518.695312 496.59375 C 516.632812 504.609375 514.34375 512.851562 512.050781 520.867188 C 510.90625 524.761719 513.199219 528.882812 517.089844 530.027344 C 517.777344 530.257812 518.464844 530.257812 519.152344 530.257812 C 522.355469 530.257812 525.335938 528.195312 526.25 524.988281 C 528.539062 516.976562 530.832031 508.730469 532.890625 500.488281 C 533.808594 496.363281 531.515625 492.242188 527.625 491.328125 Z M 629.988281 347.285156 C 625.863281 346.828125 622.203125 349.578125 621.742188 353.699219 C 620.828125 361.941406 619.683594 370.414062 618.308594 378.660156 C 617.621094 382.78125 620.597656 386.445312 624.492188 386.902344 C 624.949219 386.902344 625.179688 386.902344 625.636719 386.902344 C 629.300781 386.902344 632.277344 384.15625 632.964844 380.492188 C 634.109375 372.246094 635.253906 363.773438 636.398438 355.300781 C 636.855469 351.410156 634.109375 347.746094 629.988281 347.285156 Z M 203.359375 491.785156 C 204.277344 492.242188 205.421875 492.472656 206.566406 492.472656 C 209.316406 492.472656 212.0625 490.867188 213.207031 488.351562 C 216.871094 480.792969 220.308594 473.007812 223.742188 465.222656 C 225.34375 461.558594 223.742188 457.207031 220.078125 455.601562 C 216.414062 454 212.0625 455.601562 210.460938 459.265625 C 207.023438 466.824219 203.589844 474.609375 199.925781 481.9375 C 198.09375 485.832031 199.695312 490.183594 203.359375 491.785156 Z M 176.796875 511.480469 C 177.941406 511.9375 179.085938 512.394531 180.230469 512.394531 C 182.980469 512.394531 185.5 511.019531 186.871094 508.273438 C 190.765625 500.714844 194.429688 493.160156 198.09375 485.601562 C 199.925781 481.9375 198.324219 477.585938 194.660156 475.753906 C 190.996094 473.921875 186.644531 475.527344 184.8125 479.191406 C 181.148438 486.746094 177.484375 494.304688 173.589844 501.632812 C 171.757812 505.296875 173.132812 509.648438 176.796875 511.480469 Z M 122.753906 547.660156 C 123.898438 548.347656 125.273438 548.578125 126.417969 548.578125 C 128.9375 548.578125 131.453125 547.203125 132.828125 544.914062 C 136.949219 537.8125 141.300781 530.257812 145.425781 522.699219 C 147.484375 519.035156 146.109375 514.683594 142.445312 512.625 C 138.78125 510.5625 134.433594 511.9375 132.371094 515.601562 C 128.25 522.929688 124.128906 530.257812 120.003906 537.355469 C 117.945312 541.019531 119.089844 545.601562 122.753906 547.660156 Z M 229.46875 471.175781 C 230.382812 471.632812 231.527344 471.863281 232.445312 471.863281 C 235.191406 471.863281 237.941406 470.257812 239.085938 467.511719 C 242.519531 459.726562 245.726562 451.9375 249.160156 444.152344 C 250.765625 440.488281 248.933594 436.136719 245.269531 434.535156 C 241.605469 432.933594 237.253906 434.765625 235.648438 438.429688 C 232.445312 446.214844 229.238281 454 225.804688 461.558594 C 223.972656 465.222656 225.574219 469.570312 229.46875 471.175781 Z M 150.003906 530.027344 C 151.148438 530.714844 152.292969 530.945312 153.4375 530.945312 C 155.957031 530.945312 158.476562 529.570312 159.851562 527.050781 C 163.972656 519.722656 167.867188 512.167969 171.757812 504.609375 C 173.589844 500.945312 172.21875 496.59375 168.554688 494.761719 C 164.890625 492.929688 160.539062 494.304688 158.707031 497.96875 C 154.8125 505.296875 150.917969 512.851562 147.027344 520.179688 C 144.964844 523.617188 146.339844 528.195312 150.003906 530.027344 Z M 304.578125 403.390625 C 305.265625 403.621094 306.183594 403.847656 306.867188 403.847656 C 309.84375 403.847656 312.824219 402.015625 313.738281 398.8125 C 316.488281 390.796875 319.234375 382.78125 321.753906 374.765625 C 322.898438 370.875 320.835938 366.75 316.945312 365.605469 C 313.050781 364.460938 308.929688 366.523438 307.785156 370.414062 C 305.265625 378.429688 302.519531 386.214844 299.769531 394.230469 C 298.855469 397.894531 300.914062 402.015625 304.578125 403.390625 Z M 316.945312 511.480469 C 310.992188 516.515625 305.035156 521.554688 298.855469 526.363281 C 296.335938 528.425781 295.875 532.089844 297.9375 534.609375 C 299.082031 535.980469 300.6875 536.667969 302.519531 536.667969 C 303.890625 536.667969 305.035156 536.210938 306.183594 535.296875 C 312.363281 530.484375 318.320312 525.21875 324.5 520.179688 C 327.019531 518.121094 327.25 514.457031 325.1875 511.9375 C 323.128906 509.875 319.464844 509.417969 316.945312 511.480469 Z M 144.964844 561.402344 C 141.53125 559.339844 136.949219 560.484375 134.890625 563.921875 C 130.769531 571.019531 126.1875 578.347656 121.835938 585.445312 C 119.777344 588.882812 120.691406 593.460938 124.125 595.523438 C 125.273438 596.207031 126.644531 596.667969 128.019531 596.667969 C 130.539062 596.667969 132.828125 595.523438 134.203125 593.230469 C 138.78125 586.132812 143.132812 578.804688 147.484375 571.476562 C 149.546875 567.8125 148.402344 563.460938 144.964844 561.402344 Z M 289.234375 448.046875 C 286.257812 455.832031 283.28125 463.617188 280.074219 471.402344 C 278.472656 475.066406 280.304688 479.417969 284.199219 481.023438 C 285.113281 481.480469 286.03125 481.480469 286.945312 481.480469 C 289.921875 481.480469 292.671875 479.648438 293.816406 476.898438 C 297.023438 469.113281 300.226562 461.097656 303.203125 453.3125 C 304.578125 449.421875 302.746094 445.296875 298.855469 443.925781 C 294.960938 442.320312 290.839844 444.152344 289.234375 448.046875 Z M 280.074219 426.976562 C 280.992188 427.207031 281.90625 427.4375 282.59375 427.4375 C 285.570312 427.4375 288.320312 425.605469 289.464844 422.628906 C 292.441406 414.839844 295.417969 406.828125 298.167969 398.8125 C 299.539062 394.917969 297.480469 390.796875 293.585938 389.421875 C 289.695312 388.046875 285.570312 390.109375 284.199219 394.003906 C 281.449219 401.789062 278.472656 409.804688 275.726562 417.589844 C 274.351562 421.253906 276.183594 425.605469 280.074219 426.976562 Z M 254.886719 449.648438 C 255.800781 450.105469 256.71875 450.105469 257.632812 450.105469 C 260.609375 450.105469 263.359375 448.273438 264.503906 445.527344 C 267.710938 437.742188 270.914062 429.726562 273.894531 421.941406 C 275.265625 418.046875 273.433594 413.925781 269.542969 412.550781 C 265.648438 411.175781 261.527344 413.007812 260.152344 416.902344 C 257.175781 424.6875 254.199219 432.472656 250.992188 440.261719 C 249.390625 443.925781 251.222656 448.046875 254.886719 449.648438 Z M 258.550781 502.546875 C 259.464844 503.007812 260.609375 503.234375 261.527344 503.234375 C 264.273438 503.234375 267.023438 501.632812 268.167969 498.882812 C 271.601562 491.097656 274.808594 483.3125 278.242188 475.527344 C 279.847656 471.863281 278.015625 467.511719 274.351562 465.90625 C 270.6875 464.304688 266.335938 466.136719 264.734375 469.800781 C 261.527344 477.585938 258.320312 485.144531 254.886719 492.929688 C 253.054688 496.59375 254.886719 500.945312 258.550781 502.546875 Z M 260.839844 627.582031 C 261.984375 627.582031 262.902344 627.351562 264.046875 626.664062 C 270.6875 622.542969 277.328125 617.964844 283.738281 613.613281 C 286.488281 611.78125 287.175781 608.117188 285.34375 605.597656 C 283.511719 602.851562 279.847656 602.164062 277.328125 603.996094 C 270.914062 608.347656 264.273438 612.695312 257.863281 616.820312 C 255.113281 618.652344 254.429688 622.085938 256.03125 624.832031 C 257.175781 626.4375 259.007812 627.582031 260.839844 627.582031 Z M 323.355469 577.660156 C 321.296875 575.140625 317.859375 574.683594 315.113281 576.515625 C 308.929688 581.324219 302.519531 585.902344 296.335938 590.484375 C 293.816406 592.316406 293.128906 595.980469 294.960938 598.5 C 296.105469 600.101562 297.9375 601.019531 299.769531 601.019531 C 300.914062 601.019531 302.058594 600.558594 303.203125 599.871094 C 309.617188 595.292969 316.027344 590.484375 322.210938 585.675781 C 324.730469 583.84375 325.417969 580.179688 323.355469 577.660156 Z M 249.160156 486.746094 C 245.496094 485.144531 241.144531 486.746094 239.542969 490.410156 C 236.109375 497.96875 232.671875 505.753906 229.007812 513.082031 C 227.175781 516.746094 228.78125 521.097656 232.445312 522.929688 C 233.359375 523.386719 234.503906 523.617188 235.648438 523.617188 C 238.398438 523.617188 241.144531 522.011719 242.289062 519.492188 C 245.953125 511.9375 249.390625 504.152344 252.824219 496.363281 C 254.65625 492.929688 252.824219 488.578125 249.160156 486.746094 Z M 304.351562 640.175781 C 300.6875 638.34375 296.335938 639.71875 294.503906 643.382812 C 290.609375 650.710938 286.714844 658.269531 282.824219 665.597656 C 280.761719 669.261719 282.136719 673.609375 285.800781 675.671875 C 286.945312 676.359375 288.089844 676.585938 289.234375 676.585938 C 291.753906 676.585938 294.273438 675.214844 295.648438 672.695312 C 299.769531 665.367188 303.664062 657.808594 307.554688 650.253906 C 309.386719 646.589844 308.015625 642.238281 304.351562 640.175781 Z M 278.242188 658.496094 C 274.578125 656.4375 270.230469 657.808594 268.167969 661.472656 C 264.273438 668.800781 259.921875 676.128906 255.800781 683.230469 C 253.742188 686.664062 254.886719 691.242188 258.550781 693.304688 C 259.695312 693.992188 261.070312 694.222656 262.214844 694.222656 C 264.734375 694.222656 267.25 692.847656 268.625 690.558594 C 272.976562 683.230469 277.097656 675.902344 281.222656 668.34375 C 283.050781 664.910156 281.679688 660.328125 278.242188 658.496094 Z M 171.53125 544.226562 C 167.867188 542.164062 163.515625 543.539062 161.453125 547.203125 C 157.332031 554.53125 153.210938 561.859375 149.089844 568.957031 C 147.027344 572.394531 148.171875 576.972656 151.835938 579.035156 C 152.980469 579.722656 154.355469 579.949219 155.5 579.949219 C 158.019531 579.949219 160.539062 578.574219 161.910156 576.285156 C 166.035156 568.957031 170.386719 561.628906 174.507812 554.074219 C 176.339844 550.636719 175.195312 546.058594 171.53125 544.226562 Z M 203.359375 593.230469 C 196.71875 597.125 189.851562 601.246094 183.207031 604.910156 C 180.460938 606.515625 179.316406 609.949219 180.917969 612.695312 C 182.0625 614.527344 183.894531 615.675781 185.957031 615.675781 C 186.871094 615.675781 187.789062 615.445312 188.703125 614.988281 C 195.574219 611.09375 202.445312 607.199219 209.316406 603.078125 C 212.0625 601.476562 212.980469 597.8125 211.375 595.0625 C 209.542969 592.546875 206.109375 591.628906 203.359375 593.230469 Z M 189.164062 558.425781 C 193.285156 551.097656 197.179688 543.539062 201.070312 535.980469 C 202.902344 532.316406 201.527344 527.96875 197.863281 526.136719 C 194.199219 524.304688 189.851562 525.675781 188.019531 529.339844 C 184.125 536.898438 180.230469 544.226562 176.339844 551.554688 C 174.277344 555.21875 175.652344 559.570312 179.316406 561.628906 C 180.460938 562.316406 181.605469 562.546875 182.75 562.546875 C 185.269531 562.316406 187.789062 560.941406 189.164062 558.425781 Z M 227.175781 516.746094 C 229.007812 513.082031 227.40625 508.730469 223.742188 506.898438 C 220.078125 505.066406 215.726562 506.671875 213.894531 510.335938 C 210.230469 517.890625 206.566406 525.449219 202.675781 532.777344 C 200.84375 536.441406 202.214844 540.792969 205.878906 542.625 C 207.023438 543.082031 208.167969 543.539062 209.316406 543.539062 C 212.0625 543.539062 214.582031 542.164062 215.957031 539.417969 C 219.621094 532.089844 223.511719 524.53125 227.175781 516.746094 Z M 237.941406 629.183594 C 231.296875 633.078125 224.429688 637.199219 217.789062 640.863281 C 215.039062 642.46875 213.894531 645.902344 215.496094 648.878906 C 216.644531 650.710938 218.476562 651.855469 220.535156 651.855469 C 221.453125 651.855469 222.367188 651.625 223.285156 651.167969 C 230.152344 647.277344 237.023438 643.382812 243.894531 639.261719 C 246.640625 637.65625 247.558594 633.992188 245.953125 631.246094 C 244.121094 628.269531 240.6875 627.351562 237.941406 629.183594 Z M 242.75 568.269531 C 236.335938 572.621094 229.695312 576.972656 223.285156 581.09375 C 220.535156 582.925781 219.847656 586.363281 221.453125 589.109375 C 222.597656 590.941406 224.429688 591.859375 226.261719 591.859375 C 227.40625 591.859375 228.320312 591.628906 229.46875 590.941406 C 236.109375 586.589844 242.75 582.238281 249.160156 577.890625 C 251.910156 576.058594 252.597656 572.394531 250.765625 569.875 C 248.933594 567.125 245.269531 566.4375 242.75 568.269531 Z M 242.75 568.269531 " fill-opacity="1" fill-rule="nonzero"/></svg>