<svg xmlns="http://www.w3.org/2000/svg" xmlns:xlink="http://www.w3.org/1999/xlink" width="1080" zoomAndPan="magnify" viewBox="0 0 810 809.999993" height="1080" preserveAspectRatio="xMidYMid meet" version="1.0"><rect x="-81" width="972" fill="#ffffff" y="-80.999999" height="971.999992" fill-opacity="1"/><rect x="-81" width="972" fill="#032721" y="-80.999999" height="971.999992" fill-opacity="1"/><path fill="#0cc0df" d="M 75.378906 195.199219 C 77.125 189.582031 78.835938 184.957031 80.441406 181.703125 C 81.351562 179.855469 82.257812 178.378906 83.132812 177.277344 L 82.886719 177.625 L 83.691406 176.605469 L 83.410156 176.914062 C 83.96875 176.257812 84.492188 175.730469 85.019531 175.3125 C 93.75 168.25 106.640625 160.941406 114.675781 158.859375 C 115.757812 158.578125 116.769531 158.386719 117.679688 158.269531 L 118.027344 158.109375 L 120.261719 157.914062 L 121.835938 158.300781 C 121.835938 158.300781 121.90625 158.332031 121.90625 158.332031 C 121.976562 158.34375 122.011719 158.359375 122.078125 158.371094 C 123.300781 158.617188 124.316406 159.050781 125.1875 159.609375 L 126.550781 160.6875 L 126.796875 160.992188 C 128.855469 156.488281 131.058594 152.691406 133.328125 149.785156 C 134.828125 147.882812 136.367188 146.320312 137.972656 145.101562 L 137.695312 145.324219 L 138.53125 144.703125 L 138.21875 144.902344 C 140.210938 143.429688 142.269531 142.472656 144.367188 141.996094 C 160.609375 138.339844 177.898438 130.605469 187.4375 130.050781 C 191.835938 129.796875 195.15625 130.839844 197.425781 132.777344 C 199.136719 134.277344 200.359375 136.347656 200.816406 139.140625 C 201.023438 140.347656 200.917969 142.785156 200.535156 146.195312 C 201.234375 145.453125 201.898438 144.824219 202.5625 144.308594 C 205.460938 142.03125 208.359375 141.429688 211.085938 141.964844 C 221.667969 144.070312 246.46875 146.339844 258.625 151.488281 C 258.871094 151.59375 259.113281 151.703125 259.289062 151.78125 C 259.289062 151.78125 259.535156 151.882812 259.464844 151.855469 C 262.644531 153.296875 265.050781 155.015625 266.554688 156.804688 C 269.246094 160.019531 269.941406 163.621094 268.160156 167.664062 C 267.988281 168.085938 267.8125 168.625 267.601562 169.261719 C 315.351562 223.179688 317.519531 220.980469 361.988281 277.816406 C 371.628906 290.109375 387.242188 304.28125 393.914062 315.765625 C 397.546875 322.007812 398.664062 327.792969 397.128906 332.574219 C 404.988281 352.335938 398.316406 369.265625 385.84375 383.226562 C 368.625 402.511719 339.769531 415.761719 329.117188 422.621094 C 276.195312 456.648438 263.0625 465.238281 257.890625 468.347656 C 258.660156 474.84375 259.464844 481.351562 260.265625 487.828125 C 279.863281 587.332031 296.070312 590.460938 309.03125 630.328125 C 309.554688 631.917969 312.316406 641.210938 307.632812 649.035156 C 305.574219 652.449219 302.148438 655.707031 296.386719 657.824219 C 281.679688 663.226562 271.726562 659.015625 256.390625 653.335938 C 245.074219 666.28125 226.210938 673.039062 206.367188 675.925781 C 176.957031 680.210938 145.625 676.359375 137.414062 675.191406 C 136.4375 675.050781 133.957031 674.828125 133.152344 674.789062 C 120.332031 674.160156 108.804688 674.488281 98.464844 674.609375 L 98.292969 674.621094 L 98.117188 674.613281 C 89.28125 674.71875 81.316406 674.660156 74.15625 673.785156 C 55.957031 671.5625 42.542969 664.492188 33.355469 643.421875 C 28.324219 631.945312 25.109375 594.0625 23.714844 545.570312 C 21.792969 478.53125 22.945312 390.847656 25.738281 326.105469 L 25.738281 326.808594 L 25.84375 324.945312 L 25.738281 325.636719 C 27.589844 283.109375 30.210938 250.46875 33.039062 239.878906 C 35.03125 232.566406 37.546875 226.269531 40.339844 220.910156 L 40.132812 221.386719 L 40.796875 220.132812 L 40.515625 220.578125 C 49.144531 204.277344 60.566406 196.585938 67.515625 194.878906 C 70.695312 194.097656 73.351562 194.382812 75.378906 195.199219 Z M 261.804688 173.984375 C 260.824219 178.3125 259.777344 184.003906 258.625 190.8125 C 264.597656 197.679688 284.019531 217.160156 293.171875 228.257812 C 358.738281 307.828125 356.398438 310.578125 380.359375 341.648438 C 384.902344 337.882812 388.253906 334.253906 389.792969 330.886719 C 390.699219 328.855469 390.492188 326.511719 389.582031 323.9375 C 388.570312 321.066406 386.648438 317.949219 384.238281 314.671875 C 376.726562 304.441406 364.222656 292.777344 356.117188 282.425781 C 311.722656 225.714844 309.589844 227.96875 261.875 174.066406 C 261.839844 174.039062 261.839844 174.011719 261.804688 173.984375 Z M 117.921875 165.789062 C 117.46875 165.867188 117.015625 165.96875 116.5625 166.09375 C 109.261719 167.980469 97.628906 174.722656 89.699219 181.125 C 89.558594 181.238281 89.417969 181.367188 89.28125 181.519531 C 86.554688 192.910156 83.761719 202.117188 83.132812 208.703125 C 82.816406 212.210938 83.0625 214.902344 84.5625 216.632812 C 85.542969 217.722656 86.972656 218.367188 89 218.65625 C 93.402344 219.273438 96.546875 220.035156 98.921875 220.292969 C 100.351562 220.445312 101.433594 220.441406 102.378906 219.925781 C 103.355469 219.394531 104.125 218.363281 104.964844 216.691406 C 108.875 208.816406 112.789062 188.832031 113.066406 187.648438 C 115.792969 176.445312 116.734375 175.957031 117.921875 165.789062 Z M 123.128906 412.25 L 124.59375 414.175781 C 124.558594 414.117188 123.265625 411.863281 123.128906 412.25 C 126.726562 399.855469 125.222656 386.550781 118.972656 375.269531 C 112.71875 363.984375 102.238281 355.648438 89.839844 352.097656 L 32.796875 335.75 C 32.65625 338.953125 32.515625 342.203125 32.410156 345.496094 L 87.21875 361.199219 C 97.210938 364.058594 105.664062 370.769531 110.691406 379.855469 C 115.722656 388.9375 116.910156 399.648438 114.046875 409.625 C 92.179688 485.421875 78.800781 569.066406 80.6875 666.878906 C 83.691406 667.070312 86.871094 667.160156 90.152344 667.1875 C 88.230469 570.230469 101.503906 487.347656 123.128906 412.25 Z M 255.308594 158.207031 C 243.640625 153.441406 220.761719 151.398438 210.28125 149.425781 C 199.660156 176.773438 192.5 194.824219 191.835938 206.40625 C 191.417969 213.523438 193.617188 217.988281 199.417969 220.5 C 199.90625 220.71875 213.914062 225.753906 224.324219 227.484375 C 226.90625 227.914062 229.285156 228.140625 231.101562 228.011719 C 232.113281 227.945312 232.953125 227.792969 233.511719 227.441406 C 237.632812 224.878906 241.160156 218.835938 244.269531 210.40625 C 249.019531 197.464844 252.652344 178.988281 255.308594 158.207031 Z M 126.0625 413.085938 C 104.472656 487.9375 91.269531 570.550781 93.191406 667.195312 C 94.34375 667.195312 95.496094 667.183594 96.683594 667.171875 C 95.742188 566.238281 109.121094 481.464844 134.410156 402.949219 L 134.410156 402.945312 C 137.902344 392.058594 136.890625 380.210938 131.511719 370.101562 C 126.167969 359.992188 116.910156 352.484375 105.941406 349.289062 L 33.074219 328.109375 C 33.039062 329.613281 32.96875 331.125 32.902344 332.652344 C 33.003906 332.679688 33.144531 332.707031 33.25 332.742188 L 90.675781 349.191406 C 103.847656 352.964844 114.988281 361.820312 121.625 373.804688 C 128.226562 385.789062 129.835938 399.921875 126.0625 413.085938 L 124.59375 414.175781 Z M 257.996094 194.65625 C 252.757812 227.605469 246.46875 282.921875 243.257812 336.882812 C 243.1875 338.136719 243.117188 339.417969 243.082031 340.722656 C 252.40625 359.367188 260.371094 377.074219 268.511719 386.625 C 273.472656 392.414062 278.363281 395.152344 283.847656 392.347656 C 290.414062 388.992188 334.949219 370.910156 364.570312 352.660156 C 369.566406 349.589844 374.144531 346.527344 378.019531 343.535156 C 354.023438 312.453125 356.398438 309.730469 290.832031 230.179688 C 282.449219 219.976562 265.332031 202.6875 257.996094 194.65625 Z M 32.308594 348.609375 C 30.175781 410.03125 29.476562 485.859375 31.1875 545.359375 C 32.550781 592.457031 35.3125 629.285156 40.203125 640.4375 C 48.027344 658.433594 59.519531 664.46875 75.0625 666.367188 C 75.902344 666.472656 76.773438 666.5625 77.648438 666.644531 C 75.796875 568.617188 89.246094 484.777344 111.144531 408.792969 C 113.800781 399.582031 112.683594 389.703125 108.039062 381.316406 C 103.390625 372.933594 95.601562 366.746094 86.414062 364.105469 Z M 67.585938 202.675781 C 61.789062 204.890625 53.683594 211.625 47.152344 223.960938 C 46.175781 230.226562 44.464844 235.535156 44.078125 239.5625 C 43.902344 241.652344 44.007812 243.339844 45.160156 244.5 C 45.929688 244.832031 48.480469 245.84375 51.203125 246.011719 C 52.953125 246.121094 54.769531 245.914062 56.09375 244.78125 C 56.96875 244.042969 57.632812 242.910156 57.945312 241.285156 C 61.929688 221.550781 63.953125 221.671875 67.585938 202.675781 Z M 253.421875 368.140625 C 250.03125 361.714844 246.574219 354.578125 242.90625 347.1875 C 242.835938 354.71875 243.046875 362.949219 243.535156 371.726562 C 248.636719 369.933594 249.089844 369.675781 253.421875 368.140625 Z M 256.703125 645.492188 C 271.339844 650.878906 280.246094 655.796875 293.800781 650.8125 C 297.574219 649.429688 299.878906 647.414062 301.207031 645.183594 C 304.351562 639.945312 302.253906 633.703125 301.90625 632.636719 C 290.378906 597.132812 276.335938 590.574219 259.570312 520.078125 C 261.558594 537.8125 263.238281 554.890625 264.214844 570.527344 C 266.207031 602.359375 265.367188 628.261719 258.835938 641.703125 C 258.207031 643.015625 257.472656 644.277344 256.703125 645.492188 Z M 390.351562 335.753906 C 385.84375 341.8125 377.007812 348.5625 366.179688 355.234375 C 360.238281 358.886719 353.707031 362.53125 347 366.054688 C 347.28125 370.40625 347.488281 385.910156 327.964844 402.226562 C 322.09375 407.128906 321.921875 405.066406 252.058594 457.441406 C 252.269531 459.195312 252.476562 460.960938 252.6875 462.726562 C 256.738281 460.5 265.226562 454.816406 325.066406 416.332031 C 335.402344 409.675781 363.558594 396.972656 380.289062 378.246094 C 390.769531 366.5 396.707031 352.335938 390.351562 335.753906 Z M 190.160156 137.570312 C 189.984375 137.542969 189.777344 137.523438 189.566406 137.507812 C 186.773438 137.324219 182.964844 138.144531 178.5625 139.410156 C 169.273438 142.0625 157.394531 146.726562 146.042969 149.289062 C 144.960938 149.527344 143.945312 150.011719 142.933594 150.710938 C 134.0625 173.648438 131.40625 186.132812 131.511719 193.109375 C 131.582031 196.226562 132.175781 198.117188 133.011719 199.304688 C 133.78125 200.390625 134.757812 200.824219 135.492188 201.167969 C 136.019531 201.394531 148.347656 205.097656 157.917969 206.398438 C 161.796875 206.921875 165.183594 207.117188 167 206.371094 C 169.9375 205.183594 172.625 201.648438 175.246094 196.511719 C 181.707031 183.894531 187.050781 161.773438 190.160156 137.570312 Z M 41.144531 238.773438 C 40.828125 239.765625 40.550781 240.78125 40.269531 241.820312 C 37.476562 252.148438 34.996094 283.746094 33.214844 325 L 106.78125 346.386719 C 118.550781 349.808594 128.4375 357.855469 134.167969 368.683594 C 139.929688 379.515625 141.046875 392.210938 137.273438 403.875 C 112.089844 482.109375 98.746094 566.570312 99.722656 667.136719 C 110.585938 666.996094 122.777344 666.671875 136.367188 667.476562 C 136.402344 667.480469 136.472656 667.488281 136.507812 667.496094 C 136.507812 667.496094 172.136719 673.355469 205.285156 668.53125 C 224.742188 665.699219 243.394531 659.238281 253.105469 645.472656 C 253.140625 645.414062 253.175781 645.359375 253.210938 645.304688 C 254.292969 643.757812 255.273438 642.117188 256.109375 640.382812 C 262.503906 627.226562 263.167969 601.867188 261.175781 570.71875 C 259.636719 546.097656 256.425781 517.90625 252.933594 489.21875 L 252.898438 489.167969 C 252.898438 489.082031 252.898438 488.988281 252.898438 488.902344 C 251.605469 478.316406 250.277344 467.667969 248.984375 457.109375 C 248.984375 456.992188 248.949219 456.871094 248.949219 456.746094 C 243.640625 412.875 238.960938 370.589844 240.042969 341.03125 C 240.042969 341.011719 240.042969 340.988281 240.042969 340.964844 C 240.113281 339.511719 240.148438 338.089844 240.25 336.699219 C 244.933594 257.898438 256.285156 176.230469 261.316406 164.675781 C 261.839844 163.53125 261.59375 162.519531 260.824219 161.613281 C 260.199219 160.871094 259.289062 160.199219 258.207031 159.570312 C 255.515625 180.214844 251.847656 198.550781 247.097656 211.449219 C 243.675781 220.695312 239.625 227.199219 235.082031 230.011719 C 234.207031 230.570312 232.917969 230.917969 231.308594 231.027344 C 229.285156 231.167969 226.699219 230.9375 223.832031 230.464844 C 213.109375 228.6875 198.71875 223.496094 198.195312 223.273438 C 191.171875 220.21875 188.308594 214.886719 188.796875 206.230469 C 189.460938 194.816406 196.273438 177.183594 206.507812 150.753906 C 206.195312 151.082031 205.84375 151.457031 205.496094 151.871094 C 202.632812 155.25 199.660156 161.234375 196.65625 168.8125 C 190.683594 183.820312 184.640625 204.984375 179.472656 225.003906 C 173.21875 251.457031 167.59375 273.960938 167.421875 274.617188 C 167.421875 274.625 167.421875 274.632812 167.421875 274.632812 C 167.210938 275.4375 166.40625 275.929688 165.605469 275.730469 C 164.800781 275.535156 164.277344 274.722656 164.488281 273.914062 C 164.488281 273.90625 164.488281 273.902344 164.488281 273.898438 C 166.964844 263.621094 171.226562 244.859375 176.398438 224.855469 C 181.917969 201.648438 187.925781 175.292969 191.136719 157.996094 C 192.851562 148.980469 193.828125 142.503906 193.445312 140.378906 C 193.375 139.898438 193.234375 139.488281 193.023438 139.144531 C 189.8125 163.289062 184.398438 185.261719 177.96875 197.886719 C 174.894531 203.859375 171.542969 207.789062 168.152344 209.167969 C 165.988281 210.042969 162.042969 210.007812 157.535156 209.394531 C 147.578125 208.042969 134.796875 204.15625 134.269531 203.925781 C 133.117188 203.410156 131.722656 202.691406 130.53125 201.058594 C 129.449219 199.535156 128.578125 197.144531 128.507812 193.152344 C 128.402344 186.792969 130.464844 175.945312 137.308594 157.085938 C 134.515625 161.449219 131.964844 167.3125 129.625 174.167969 C 118.097656 207.445312 111.078125 263.808594 105.941406 289.234375 C 105.800781 290.046875 105 290.574219 104.195312 290.421875 C 103.390625 290.265625 102.832031 289.484375 102.972656 288.671875 C 102.972656 288.671875 116.5625 212.570312 120.402344 179.75 C 121.066406 174.09375 121.449219 169.742188 121.417969 167.328125 C 121.417969 166.792969 121.347656 166.195312 121.3125 166.023438 C 121.207031 165.914062 121.101562 165.835938 120.960938 165.78125 C 119.738281 176.464844 118.796875 176.84375 116 188.359375 C 115.722656 189.570312 111.671875 209.988281 107.652344 218.042969 C 106.464844 220.441406 105.242188 221.816406 103.847656 222.578125 C 102.414062 223.359375 100.773438 223.53125 98.605469 223.296875 C 96.195312 223.035156 93.015625 222.269531 88.582031 221.648438 C 85.683594 221.238281 83.65625 220.183594 82.292969 218.625 C 80.929688 217.074219 80.199219 214.988281 80.023438 212.359375 C 79.847656 209.421875 80.371094 205.730469 81.316406 201.351562 C 74.992188 222.789062 68.078125 256.101562 63.1875 281.378906 C 59.691406 300.535156 56.828125 315.804688 56.722656 316.441406 C 56.722656 316.453125 56.722656 316.460938 56.722656 316.460938 C 56.550781 317.277344 55.78125 317.816406 54.941406 317.667969 C 54.140625 317.519531 53.578125 316.742188 53.71875 315.925781 C 53.71875 315.925781 53.71875 315.917969 53.71875 315.902344 C 53.859375 315.265625 56.515625 299.941406 60.425781 279.757812 C 66.085938 248.828125 73.28125 208.492188 73.28125 203.355469 C 73.28125 202.609375 72.863281 202.144531 72.164062 201.976562 C 71.777344 201.878906 71.324219 201.851562 70.800781 201.886719 C 70.800781 201.9375 70.800781 201.992188 70.800781 202.042969 C 66.992188 222.261719 65.003906 221.726562 60.914062 241.882812 C 60.425781 244.328125 59.34375 245.980469 58.050781 247.089844 C 56.09375 248.726562 53.511719 249.183594 51.03125 249.03125 C 47.605469 248.820312 44.429688 247.484375 43.765625 247.1875 L 43.273438 246.882812 C 41.355469 245.121094 40.761719 242.574219 41.074219 239.28125 C 41.109375 239.113281 41.109375 238.945312 41.144531 238.773438 Z M 344.03125 367.605469 C 318.007812 381.066406 290.308594 392.441406 285.242188 395.039062 C 278.5 398.476562 272.285156 395.691406 266.242188 388.582031 C 262.46875 384.160156 258.695312 378.015625 254.851562 370.84375 C 250.03125 372.542969 249.789062 372.734375 244.234375 374.679688 C 244.058594 374.742188 243.882812 374.773438 243.710938 374.765625 C 245.140625 398.4375 248.214844 425.832031 251.640625 453.976562 C 320 402.765625 320.210938 404.765625 326.042969 399.90625 C 342.601562 386.066406 344.101562 372.929688 344.03125 367.605469 Z M 344.03125 367.605469 " fill-opacity="1" fill-rule="evenodd"/><path fill="#0cc0df" d="M 734.621094 195.199219 C 732.875 189.582031 731.164062 184.957031 729.554688 181.703125 C 728.648438 179.855469 727.738281 178.378906 726.867188 177.277344 L 727.109375 177.625 L 726.308594 176.605469 L 726.585938 176.914062 C 726.027344 176.257812 725.503906 175.730469 724.980469 175.3125 C 716.246094 168.25 703.359375 160.941406 695.324219 158.859375 C 694.242188 158.578125 693.226562 158.386719 692.320312 158.269531 L 691.972656 158.109375 L 689.734375 157.914062 L 688.164062 158.300781 C 688.164062 158.300781 688.09375 158.332031 688.09375 158.332031 C 688.023438 158.34375 687.988281 158.359375 687.917969 158.371094 C 686.695312 158.617188 685.683594 159.050781 684.808594 159.609375 L 683.449219 160.6875 L 683.203125 160.992188 C 681.140625 156.488281 678.941406 152.691406 676.671875 149.785156 C 675.167969 147.882812 673.632812 146.320312 672.023438 145.101562 L 672.304688 145.324219 L 671.464844 144.703125 L 671.78125 144.902344 C 669.789062 143.429688 667.730469 142.472656 665.632812 141.996094 C 649.390625 138.339844 632.097656 130.605469 622.5625 130.050781 C 618.160156 129.796875 614.84375 130.839844 612.574219 132.777344 C 610.859375 134.277344 609.636719 136.347656 609.183594 139.140625 C 608.972656 140.347656 609.078125 142.785156 609.464844 146.195312 C 608.765625 145.453125 608.101562 144.824219 607.4375 144.308594 C 604.539062 142.03125 601.636719 141.429688 598.914062 141.964844 C 588.328125 144.070312 563.527344 146.339844 551.371094 151.488281 C 551.128906 151.59375 550.882812 151.703125 550.710938 151.78125 C 550.710938 151.78125 550.464844 151.882812 550.535156 151.855469 C 547.355469 153.296875 544.945312 155.015625 543.445312 156.804688 C 540.753906 160.019531 540.054688 163.621094 541.835938 167.664062 C 542.011719 168.085938 542.1875 168.625 542.394531 169.261719 C 494.644531 223.179688 492.480469 220.980469 448.011719 277.816406 C 438.371094 290.109375 422.757812 304.28125 416.085938 315.765625 C 412.453125 322.007812 411.335938 327.792969 412.871094 332.574219 C 405.011719 352.335938 411.683594 369.265625 424.152344 383.226562 C 441.375 402.511719 470.226562 415.761719 480.882812 422.621094 C 533.800781 456.648438 546.9375 465.238281 552.105469 468.347656 C 551.335938 474.84375 550.535156 481.351562 549.730469 487.828125 C 530.136719 587.332031 513.925781 590.460938 500.96875 630.328125 C 500.441406 631.917969 497.683594 641.210938 502.363281 649.035156 C 504.425781 652.449219 507.847656 655.707031 513.613281 657.824219 C 528.316406 663.226562 538.273438 659.015625 553.609375 653.335938 C 564.925781 666.28125 583.789062 673.039062 603.628906 675.925781 C 633.042969 680.210938 664.375 676.359375 672.582031 675.191406 C 673.5625 675.050781 676.042969 674.828125 676.84375 674.789062 C 689.664062 674.160156 701.191406 674.488281 711.53125 674.609375 L 711.707031 674.621094 L 711.882812 674.613281 C 720.71875 674.71875 728.683594 674.660156 735.84375 673.785156 C 754.042969 671.5625 767.457031 664.492188 776.644531 643.421875 C 781.671875 631.945312 784.886719 594.0625 786.285156 545.570312 C 788.207031 478.53125 787.054688 390.847656 784.257812 326.105469 L 784.257812 326.808594 L 784.152344 324.945312 L 784.257812 325.636719 C 782.40625 283.109375 779.789062 250.46875 776.957031 239.878906 C 774.96875 232.566406 772.453125 226.269531 769.65625 220.910156 L 769.867188 221.386719 L 769.203125 220.132812 L 769.484375 220.578125 C 760.855469 204.277344 749.433594 196.585938 742.480469 194.878906 C 739.300781 194.097656 736.648438 194.382812 734.621094 195.199219 Z M 548.195312 173.984375 C 549.171875 178.3125 550.21875 184.003906 551.371094 190.8125 C 545.398438 197.679688 525.976562 217.160156 516.828125 228.257812 C 451.261719 307.828125 453.601562 310.578125 429.636719 341.648438 C 425.097656 337.882812 421.742188 334.253906 420.207031 330.886719 C 419.296875 328.855469 419.507812 326.511719 420.417969 323.9375 C 421.429688 321.066406 423.351562 317.949219 425.761719 314.671875 C 433.269531 304.441406 445.777344 292.777344 453.878906 282.425781 C 498.277344 225.714844 500.410156 227.96875 548.125 174.066406 C 548.160156 174.039062 548.160156 174.011719 548.195312 173.984375 Z M 692.074219 165.789062 C 692.53125 165.867188 692.984375 165.96875 693.4375 166.09375 C 700.738281 167.980469 712.371094 174.722656 720.300781 181.125 C 720.441406 181.238281 720.578125 181.367188 720.71875 181.519531 C 723.445312 192.910156 726.238281 202.117188 726.867188 208.703125 C 727.179688 212.210938 726.9375 214.902344 725.433594 216.632812 C 724.457031 217.722656 723.023438 218.367188 721 218.65625 C 716.597656 219.273438 713.453125 220.035156 711.078125 220.292969 C 709.644531 220.445312 708.5625 220.441406 707.621094 219.925781 C 706.640625 219.394531 705.875 218.363281 705.035156 216.691406 C 701.121094 208.816406 697.210938 188.832031 696.929688 187.648438 C 694.207031 176.445312 693.261719 175.957031 692.074219 165.789062 Z M 686.871094 412.25 L 685.402344 414.175781 C 685.4375 414.117188 686.730469 411.863281 686.871094 412.25 C 683.273438 399.855469 684.773438 386.550781 691.027344 375.269531 C 697.28125 363.984375 707.757812 355.648438 720.160156 352.097656 L 777.203125 335.75 C 777.34375 338.953125 777.480469 342.203125 777.585938 345.496094 L 722.78125 361.199219 C 712.789062 364.058594 704.335938 370.769531 699.304688 379.855469 C 694.277344 388.9375 693.089844 399.648438 695.953125 409.625 C 717.820312 485.421875 731.199219 569.066406 729.3125 666.878906 C 726.308594 667.070312 723.128906 667.160156 719.84375 667.1875 C 721.765625 570.230469 708.492188 487.347656 686.871094 412.25 Z M 554.691406 158.207031 C 566.359375 153.441406 589.238281 151.398438 599.71875 149.425781 C 610.335938 176.773438 617.496094 194.824219 618.160156 206.40625 C 618.582031 213.523438 616.378906 217.988281 610.582031 220.5 C 610.09375 220.71875 596.085938 225.753906 585.675781 227.484375 C 583.089844 227.914062 580.714844 228.140625 578.898438 228.011719 C 577.886719 227.945312 577.046875 227.792969 576.488281 227.441406 C 572.367188 224.878906 568.839844 218.835938 565.730469 210.40625 C 560.980469 197.464844 557.347656 178.988281 554.691406 158.207031 Z M 683.9375 413.085938 C 705.523438 487.9375 718.726562 570.550781 716.804688 667.195312 C 715.652344 667.195312 714.5 667.183594 713.3125 667.171875 C 714.257812 566.238281 700.878906 481.464844 675.589844 402.949219 L 675.589844 402.945312 C 672.09375 392.058594 673.109375 380.210938 678.488281 370.101562 C 683.832031 359.992188 693.089844 352.484375 704.058594 349.289062 L 776.921875 328.109375 C 776.957031 329.613281 777.027344 331.125 777.097656 332.652344 C 776.992188 332.679688 776.851562 332.707031 776.75 332.742188 L 719.320312 349.191406 C 706.152344 352.964844 695.011719 361.820312 688.371094 373.804688 C 681.769531 385.789062 680.164062 399.921875 683.9375 413.085938 L 685.402344 414.175781 Z M 552 194.65625 C 557.242188 227.605469 563.527344 282.921875 566.742188 336.882812 C 566.8125 338.136719 566.882812 339.417969 566.917969 340.722656 C 557.589844 359.367188 549.625 377.074219 541.488281 386.625 C 536.527344 392.414062 531.636719 395.152344 526.152344 392.347656 C 519.585938 388.992188 475.046875 370.910156 445.425781 352.660156 C 440.433594 349.589844 435.855469 346.527344 431.976562 343.535156 C 455.976562 312.453125 453.601562 309.730469 519.167969 230.179688 C 527.550781 219.976562 544.667969 202.6875 552 194.65625 Z M 777.691406 348.609375 C 779.824219 410.03125 780.519531 485.859375 778.808594 545.359375 C 777.445312 592.457031 774.6875 629.285156 769.796875 640.4375 C 761.972656 658.433594 750.480469 664.46875 734.9375 666.367188 C 734.097656 666.472656 733.222656 666.5625 732.351562 666.644531 C 734.203125 568.617188 720.753906 484.777344 698.851562 408.792969 C 696.195312 399.582031 697.316406 389.703125 701.960938 381.316406 C 706.605469 372.933594 714.398438 366.746094 723.582031 364.105469 Z M 742.410156 202.675781 C 748.210938 204.890625 756.3125 211.625 762.847656 223.960938 C 763.824219 230.226562 765.535156 235.535156 765.921875 239.5625 C 766.09375 241.652344 765.988281 243.339844 764.835938 244.5 C 764.066406 244.832031 761.519531 245.84375 758.792969 246.011719 C 757.046875 246.121094 755.230469 245.914062 753.902344 244.78125 C 753.03125 244.042969 752.367188 242.910156 752.050781 241.285156 C 748.070312 221.550781 746.042969 221.671875 742.410156 202.675781 Z M 556.578125 368.140625 C 559.964844 361.714844 563.425781 354.578125 567.089844 347.1875 C 567.160156 354.71875 566.953125 362.949219 566.464844 371.726562 C 561.363281 369.933594 560.910156 369.675781 556.578125 368.140625 Z M 553.292969 645.492188 C 538.660156 650.878906 529.75 655.796875 516.199219 650.8125 C 512.425781 649.429688 510.121094 647.414062 508.792969 645.183594 C 505.648438 639.945312 507.746094 633.703125 508.09375 632.636719 C 519.621094 597.132812 533.664062 590.574219 550.429688 520.078125 C 548.4375 537.8125 546.761719 554.890625 545.785156 570.527344 C 543.792969 602.359375 544.632812 628.261719 551.164062 641.703125 C 551.792969 643.015625 552.527344 644.277344 553.292969 645.492188 Z M 419.648438 335.753906 C 424.152344 341.8125 432.992188 348.5625 443.820312 355.234375 C 449.757812 358.886719 456.289062 362.53125 462.996094 366.054688 C 462.71875 370.40625 462.507812 385.910156 482.035156 402.226562 C 487.902344 407.128906 488.078125 405.066406 557.941406 457.441406 C 557.730469 459.195312 557.519531 460.960938 557.3125 462.726562 C 553.257812 460.5 544.769531 454.816406 484.933594 416.332031 C 474.59375 409.675781 446.441406 396.972656 429.707031 378.246094 C 419.226562 366.5 413.289062 352.335938 419.648438 335.753906 Z M 619.835938 137.570312 C 620.011719 137.542969 620.222656 137.523438 620.433594 137.507812 C 623.226562 137.324219 627.035156 138.144531 631.433594 139.410156 C 640.726562 142.0625 652.601562 146.726562 663.957031 149.289062 C 665.039062 149.527344 666.050781 150.011719 667.066406 150.710938 C 675.9375 173.648438 678.59375 186.132812 678.488281 193.109375 C 678.417969 196.226562 677.824219 198.117188 676.984375 199.304688 C 676.214844 200.390625 675.238281 200.824219 674.503906 201.167969 C 673.980469 201.394531 661.652344 205.097656 652.078125 206.398438 C 648.203125 206.921875 644.8125 207.117188 642.996094 206.371094 C 640.0625 205.183594 637.375 201.648438 634.753906 196.511719 C 628.292969 183.894531 622.945312 161.773438 619.835938 137.570312 Z M 768.855469 238.773438 C 769.167969 239.765625 769.449219 240.78125 769.726562 241.820312 C 772.523438 252.148438 775.003906 283.746094 776.785156 325 L 703.21875 346.386719 C 691.445312 349.808594 681.5625 357.855469 675.832031 368.683594 C 670.070312 379.515625 668.953125 392.210938 672.722656 403.875 C 697.910156 482.109375 711.253906 566.570312 710.273438 667.136719 C 699.410156 666.996094 687.21875 666.671875 673.632812 667.476562 C 673.597656 667.480469 673.527344 667.488281 673.492188 667.496094 C 673.492188 667.496094 637.863281 673.355469 604.710938 668.53125 C 585.253906 665.699219 566.601562 659.238281 556.890625 645.472656 C 556.855469 645.414062 556.824219 645.359375 556.785156 645.304688 C 555.703125 643.757812 554.726562 642.117188 553.886719 640.382812 C 547.496094 627.226562 546.832031 601.867188 548.824219 570.71875 C 550.359375 546.097656 553.574219 517.90625 557.066406 489.21875 L 557.101562 489.167969 C 557.101562 489.082031 557.101562 488.988281 557.101562 488.902344 C 558.394531 478.316406 559.722656 467.667969 561.015625 457.109375 C 561.015625 456.992188 561.050781 456.871094 561.050781 456.746094 C 566.359375 412.875 571.039062 370.589844 569.957031 341.03125 C 569.957031 341.011719 569.957031 340.988281 569.957031 340.964844 C 569.886719 339.511719 569.851562 338.089844 569.746094 336.699219 C 565.066406 257.898438 553.714844 176.230469 548.683594 164.675781 C 548.160156 163.53125 548.402344 162.519531 549.171875 161.613281 C 549.800781 160.871094 550.710938 160.199219 551.792969 159.570312 C 554.480469 180.214844 558.148438 198.550781 562.898438 211.449219 C 566.324219 220.695312 570.375 227.199219 574.917969 230.011719 C 575.789062 230.570312 577.082031 230.917969 578.6875 231.027344 C 580.714844 231.167969 583.300781 230.9375 586.164062 230.464844 C 596.886719 228.6875 611.28125 223.496094 611.804688 223.273438 C 618.824219 220.21875 621.6875 214.886719 621.199219 206.230469 C 620.535156 194.816406 613.726562 177.183594 603.492188 150.753906 C 603.804688 151.082031 604.152344 151.457031 604.503906 151.871094 C 607.367188 155.25 610.335938 161.234375 613.339844 168.8125 C 619.3125 183.820312 625.355469 204.984375 630.527344 225.003906 C 636.777344 251.457031 642.402344 273.960938 642.578125 274.617188 C 642.578125 274.625 642.578125 274.632812 642.578125 274.632812 C 642.789062 275.4375 643.589844 275.929688 644.394531 275.730469 C 645.199219 275.535156 645.722656 274.722656 645.511719 273.914062 C 645.511719 273.90625 645.511719 273.902344 645.511719 273.898438 C 643.03125 263.621094 638.769531 244.859375 633.601562 224.855469 C 628.082031 201.648438 622.074219 175.292969 618.859375 157.996094 C 617.148438 148.980469 616.167969 142.503906 616.554688 140.378906 C 616.625 139.898438 616.765625 139.488281 616.972656 139.144531 C 620.1875 163.289062 625.601562 185.261719 632.027344 197.886719 C 635.101562 203.859375 638.457031 207.789062 641.84375 209.167969 C 644.011719 210.042969 647.957031 210.007812 652.464844 209.394531 C 662.417969 208.042969 675.203125 204.15625 675.726562 203.925781 C 676.878906 203.410156 678.277344 202.691406 679.464844 201.058594 C 680.546875 199.535156 681.421875 197.144531 681.492188 193.152344 C 681.597656 186.792969 679.535156 175.945312 672.6875 157.085938 C 675.484375 161.449219 678.035156 167.3125 680.375 174.167969 C 691.902344 207.445312 698.921875 263.808594 704.058594 289.234375 C 704.195312 290.046875 705 290.574219 705.804688 290.421875 C 706.605469 290.265625 707.164062 289.484375 707.027344 288.671875 C 707.027344 288.671875 693.4375 212.570312 689.59375 179.75 C 688.933594 174.09375 688.546875 169.742188 688.582031 167.328125 C 688.582031 166.792969 688.652344 166.195312 688.6875 166.023438 C 688.792969 165.914062 688.898438 165.835938 689.035156 165.78125 C 690.257812 176.464844 691.203125 176.84375 693.996094 188.359375 C 694.277344 189.570312 698.328125 209.988281 702.34375 218.042969 C 703.53125 220.441406 704.753906 221.816406 706.152344 222.578125 C 707.585938 223.359375 709.226562 223.53125 711.390625 223.296875 C 713.800781 223.035156 716.980469 222.269531 721.417969 221.648438 C 724.316406 221.238281 726.34375 220.183594 727.707031 218.625 C 729.066406 217.074219 729.800781 214.988281 729.976562 212.359375 C 730.148438 209.421875 729.625 205.730469 728.683594 201.351562 C 735.007812 222.789062 741.921875 256.101562 746.8125 281.378906 C 750.304688 300.535156 753.171875 315.804688 753.273438 316.441406 C 753.273438 316.453125 753.273438 316.460938 753.273438 316.460938 C 753.449219 317.277344 754.21875 317.816406 755.054688 317.667969 C 755.859375 317.519531 756.417969 316.742188 756.277344 315.925781 C 756.277344 315.925781 756.277344 315.917969 756.277344 315.902344 C 756.140625 315.265625 753.484375 299.941406 749.570312 279.757812 C 743.914062 248.828125 736.71875 208.492188 736.71875 203.355469 C 736.71875 202.609375 737.136719 202.144531 737.835938 201.976562 C 738.21875 201.878906 738.671875 201.851562 739.199219 201.886719 C 739.199219 201.9375 739.199219 201.992188 739.199219 202.042969 C 743.003906 222.261719 744.996094 221.726562 749.082031 241.882812 C 749.570312 244.328125 750.65625 245.980469 751.949219 247.089844 C 753.902344 248.726562 756.488281 249.183594 758.96875 249.03125 C 762.390625 248.820312 765.570312 247.484375 766.234375 247.1875 L 766.722656 246.882812 C 768.644531 245.121094 769.238281 242.574219 768.925781 239.28125 C 768.890625 239.113281 768.890625 238.945312 768.855469 238.773438 Z M 465.964844 367.605469 C 491.988281 381.066406 519.691406 392.441406 524.753906 395.039062 C 531.496094 398.476562 537.714844 395.691406 543.757812 388.582031 C 547.53125 384.160156 551.304688 378.015625 555.144531 370.84375 C 559.964844 372.542969 560.210938 372.734375 565.765625 374.679688 C 565.9375 374.742188 566.113281 374.773438 566.289062 374.765625 C 564.855469 398.4375 561.78125 425.832031 558.359375 453.976562 C 490 402.765625 489.789062 404.765625 483.957031 399.90625 C 467.398438 386.066406 465.894531 372.929688 465.964844 367.605469 Z M 465.964844 367.605469 " fill-opacity="1" fill-rule="evenodd"/></svg>